STARTFONT 2.1
COMMENT ======================================================================
COMMENT Font Status: Missing 19 elements from base; no extensions.
COMMENT ***********
COMMENT Fidel18.bdf is a 50% scale from EthioLaTeX ethio[xyz]12.300pk  
COMMENT ***********
COMMENT This Is The Unicode Ordered Ethiopic Font In JIS Encoding Based On UTC-95-055A.
COMMENT Extension candidates are added in 4 rows at the end in a compressed 16
COMMENT column format. SERA character names are given for alphabetic elements;
COMMENT punctuations and numbers are named descriptively.
COMMENT Unicode encoding begins at hex 1200 / dec 4608
COMMENT JIS encoding begins at Kuten [90,1] (hex 7a21 / dec 31265)
COMMENT ***********
COMMENT Another Fine Admas Product : fisseha@cig.mot.com
COMMENT Available at ftp://ftp.cs.indiana.edu/pub/fidel/fonts/webfonts.tar.Z
COMMENT ======================================================================
FONT -Admas-Fidel-Medium-R-Normal--18-180-100-100-C-363-jisx0208.1983-0
SIZE 18 100 100
FONTBOUNDINGBOX 34 26 -1 -1
STARTPROPERTIES 4
FONT_ASCENT 25
FONT_DESCENT 4
COPYRIGHT "GNU CopyLeft"
DEFAULT_CHAR 32103
ENDPROPERTIES
CHARS 354
STARTCHAR he
ENCODING  31265
SWIDTH 320 0
DWIDTH 17 0
BBX 14 17 1 0
BITMAP
0078
78fc
fc7c
787c
787c
787c
f87c
f878
f8f8
f8f8
f8f8
f0f0
f0f0
f1e0
f9c0
7f00
1800
ENDCHAR
STARTCHAR hu
ENCODING  31266
SWIDTH 440 0
DWIDTH 23 0
BBX 20 16 1 0
BITMAP
00f800
38f800
f8f800
787800
787800
787c00
787fe0
f87fe0
f879e0
f8f8f0
f0f820
f0f000
f0e000
f1c000
f38000
3e0000
ENDCHAR
STARTCHAR hi
ENCODING  31267
SWIDTH 340 0
DWIDTH 17 0
BBX 14 22 0 -2
BITMAP
00f0
f9f0
f8f0
f8f0
f8f0
f9f0
f9e0
f9e0
ffc0
7fc0
07c0
0780
0f80
0f00
1f00
1f00
1e18
3e3c
3ffc
1ffc
007c
0038
ENDCHAR
STARTCHAR ha
ENCODING  31268
SWIDTH 280 0
DWIDTH 15 0
BBX 12 21 0 -1
BITMAP
00f0
f9f0
f8f0
78f0
78f0
78f0
79f0
f9e0
ffe0
7fc0
07c0
07c0
0f80
0f80
0f00
1f00
1f00
1e00
3e00
3f00
1c00
ENDCHAR
STARTCHAR hE
ENCODING  31269
SWIDTH 360 0
DWIDTH 20 0
BBX 17 21 0 -1
BITMAP
00f000
f8f800
fcf000
7cf000
78f000
78f000
79f000
ffe000
7fe000
33e000
03c000
07c000
07c000
078f00
0f9f80
0f8f00
0f0f00
1f0e00
1ffc00
0fe000
000000
ENDCHAR
STARTCHAR h
ENCODING  31270
SWIDTH 340 0
DWIDTH 17 0
BBX 14 17 1 0
BITMAP
0078
307c
f87c
f87c
f87c
f07c
fc7c
fc7c
7c7c
7c7c
7c7c
7c78
7c78
7cf0
7ce0
3fc0
1f00
ENDCHAR
STARTCHAR ho
ENCODING  31271
SWIDTH 400 0
DWIDTH 22 0
BBX 19 18 1 0
BITMAP
000f80
0073c0
00f3e0
78fbe0
f8fbc0
78fb80
78ff00
78fc00
f8f800
f8f800
f8f800
f0f000
f0f000
f0f000
f1e000
f1c000
f78000
7e0000
ENDCHAR
STARTCHAR le
ENCODING  31273
SWIDTH 320 0
DWIDTH 17 0
BBX 14 19 1 -1
BITMAP
1f00
1f00
0f80
0fc0
1fe0
3ff0
3df0
7cf0
78f8
f8f8
f8f8
f0f8
f0f8
f0f8
f0f8
f8f8
f8fc
f87c
6060
ENDCHAR
STARTCHAR lu
ENCODING  31274
SWIDTH 420 0
DWIDTH 22 0
BBX 19 19 1 -1
BITMAP
1f0000
1f0000
1f8000
0fc000
1fc000
3fe000
3df000
7df040
78ffc0
f8fbc0
f8f3c0
f0f1e0
f0f000
f0f000
f0f800
f8f800
f8f800
f8f800
606000
ENDCHAR
STARTCHAR li
ENCODING  31275
SWIDTH 460 0
DWIDTH 24 0
BBX 21 20 1 -2
BITMAP
0f0000
1f0000
0f8000
0fc000
1fe000
3ff000
3df000
7cf800
78f800
f8f800
f8f800
f0f800
f0f800
f0f800
f0f800
f8f8f0
f8f9f0
f87ff0
6021f8
0000f8
ENDCHAR
STARTCHAR la
ENCODING  31276
SWIDTH 320 0
DWIDTH 17 0
BBX 14 19 1 -1
BITMAP
1f00
1f00
0f80
0fc0
1fe0
3ff0
7df0
78f0
f8f0
f8f8
f8f8
f8f8
f8f8
78f8
00f8
00f8
00fc
007c
0060
ENDCHAR
STARTCHAR lE
ENCODING  31277
SWIDTH 400 0
DWIDTH 22 0
BBX 19 19 1 0
BITMAP
1f0000
1f0000
1f8000
0fc000
0fe000
1fe000
3ff000
7cf000
78f000
f8f800
f8f800
f8f800
f0f800
f0ffc0
f0f9e0
f0f9e0
f8f9e0
f8ffc0
f87f80
ENDCHAR
STARTCHAR l
ENCODING  31278
SWIDTH 400 0
DWIDTH 21 0
BBX 18 18 1 0
BITMAP
038000
0f8000
07c000
07f000
07f800
0ff800
1ffc00
1e7c00
3e3e00
7c3e00
799f00
7fdf00
fbff00
fbcf80
fbcf80
ff8f80
f80fc0
e007c0
ENDCHAR
STARTCHAR lo
ENCODING  31279
SWIDTH 500 0
DWIDTH 27 0
BBX 24 19 1 -1
BITMAP
1e0000
1f0000
1f8000
0fc000
1fe000
3fe008
3df0fe
7cf7df
78ffdf
f8f3cf
f8f3cf
f8f3fc
f0f9c0
f0f800
f0f800
f8f800
f8f800
f87c00
606000
ENDCHAR
STARTCHAR lWa
ENCODING  31280
SWIDTH 400 0
DWIDTH 22 0
BBX 19 21 0 -3
BITMAP
1f0000
1f0000
0f8000
0fc000
1fe000
3ff000
7df000
78f000
f8f800
f8f800
f8f800
f8f800
f8f800
70f800
00f800
00f800
00f800
1fffe0
1e03e0
1e01e0
1c00e0
ENDCHAR
STARTCHAR He
ENCODING  31281
SWIDTH 420 0
DWIDTH 23 0
BBX 20 17 0 0
BITMAP
00f800
00f800
00f800
00f800
00f800
00f800
00ff80
07ffe0
1ef1e0
38f1e0
78f1e0
f8f1e0
f8f1e0
f8f1f0
f9f1f0
f9f1f0
f0f1f0
ENDCHAR
STARTCHAR Hu
ENCODING  31282
SWIDTH 540 0
DWIDTH 29 0
BBX 26 17 0 0
BITMAP
00f80000
00f80000
00f80000
00f80000
00f80000
00f80000
00ff8000
07ffe000
1ef1e000
38f1e000
78f1ff80
f8f1ff80
f8f1e780
f8f1e3c0
f9f1e180
f9f1f000
f9f1e000
ENDCHAR
STARTCHAR Hi
ENCODING  31283
SWIDTH 560 0
DWIDTH 30 0
BBX 27 19 0 -2
BITMAP
00f80000
00f80000
00f80000
00f80000
00f80000
00f80000
00ff8000
07ffe000
1ef1e000
38f1e000
78f1e000
f8f1e000
f8f1e000
f8f1e1c0
f8f1f3c0
f8f1ffc0
f8f1ffc0
000003e0
00000180
ENDCHAR
STARTCHAR Ha
ENCODING  31284
SWIDTH 420 0
DWIDTH 23 0
BBX 20 17 0 0
BITMAP
00f800
00f800
00f800
00f800
00f800
00f800
00ff80
0fffc0
3ef1e0
78f1e0
f8f1e0
f9f1e0
f9f1e0
f0e1e0
0001e0
0001f0
0001f0
ENDCHAR
STARTCHAR HE
ENCODING  31285
SWIDTH 540 0
DWIDTH 28 0
BBX 25 17 1 0
BITMAP
00f80000
00f80000
00f80000
00f80000
00f80000
00f00000
00ffc000
07ffe000
1ef1e000
38f1e000
78f1e200
f8f1ff80
f8f1e780
f8f1e380
f8f1e380
f9f1ff80
f8f1ff00
ENDCHAR
STARTCHAR H
ENCODING  31286
SWIDTH 420 0
DWIDTH 23 0
BBX 20 20 0 0
BITMAP
0f0000
0f8000
0f8000
0ff800
0ff800
007800
007800
007800
00f800
00ffc0
07ffe0
1ef1e0
3cf1f0
78f1f0
f8f1f0
f8f1f0
f8f1f0
f8f1f0
f8f1f0
f8f1f0
ENDCHAR
STARTCHAR Ho
ENCODING  31287
SWIDTH 420 0
DWIDTH 23 0
BBX 20 17 0 0
BITMAP
00f800
00f800
007800
007800
00f800
00f800
00ffc0
07ffe0
1ef1e0
3cf1f0
78f1f0
78f1f0
f8f1f0
f8f0e0
f80000
f80000
f80000
ENDCHAR
STARTCHAR HWa
ENCODING  31288
SWIDTH 420 0
DWIDTH 23 0
BBX 20 17 0 0
BITMAP
00f800
00f800
00f800
00f800
00f800
00f800
00ff80
0fffc0
3ef1e0
78f1e0
f8f1e0
f9f1e0
f9f1e0
f0e1e0
0001e0
0001f0
0001f0
ENDCHAR
STARTCHAR me
ENCODING  31289
SWIDTH 520 0
DWIDTH 27 0
BBX 24 12 0 4
BITMAP
000ffe
07ffff
1efbcf
3cf3cf
78f3cf
78f7cf
f9e7cf
f1e78e
f3e7fe
f3c7f8
ffc000
7c0000
ENDCHAR
STARTCHAR mu
ENCODING  31290
SWIDTH 660 0
DWIDTH 34 0
BBX 31 12 0 4
BITMAP
000ffe0c
07ffff3c
1efbcf3c
3cf3cffe
78f3cf3e
78f7cf1c
f9e7cf00
f1e78f00
f3e7fe00
f3c7f800
ffc00000
7c000000
ENDCHAR
STARTCHAR mi
ENCODING  31291
SWIDTH 540 0
DWIDTH 28 0
BBX 25 20 1 -2
BITMAP
000ff800
1fff3c00
39ef3c00
71ef3c00
f1cf3c00
f3de7c00
f3de7800
ffcff800
7c00f800
0000f000
0000f000
0001f000
0001e000
0003e000
0003e000
0003c780
0007cf80
0007ff80
00038f80
00000780
ENDCHAR
STARTCHAR ma
ENCODING  31292
SWIDTH 480 0
DWIDTH 25 0
BBX 22 18 1 0
BITMAP
0ffff8
39ef3c
71ef3c
f1ef3c
f3cf3c
f3df7c
f3dff8
7f88f8
3000f8
0000f0
0001f0
0001f0
0001e0
0003e0
0003e0
0003c0
0007c0
0003c0
ENDCHAR
STARTCHAR mE
ENCODING  31293
SWIDTH 520 0
DWIDTH 27 0
BBX 24 18 1 0
BITMAP
0ffffc
3def3c
79ef3e
f1ef3e
f3cf3e
f3df3c
f3dffc
7f88fc
3000f8
0000f8
0000f0
0001f0
0001fe
0003e7
0003e7
0003c7
0007cf
0003fe
ENDCHAR
STARTCHAR m
ENCODING  31294
SWIDTH 480 0
DWIDTH 25 0
BBX 22 18 1 0
BITMAP
001ff8
0ffffc
3fef3c
79ef3c
79ef3c
f9ef3c
f3cf3c
f3cff0
f3c700
ffc000
7f8000
0f0000
1e0000
3c0000
7c0000
780000
780000
780000
ENDCHAR
STARTCHAR mo
ENCODING  31295
SWIDTH 480 0
DWIDTH 26 0
BBX 23 19 0 0
BITMAP
001ffc
0ffffe
1ff79e
3df79e
79e79e
f9e79e
f9ef9e
f9e7f8
fbe7f0
ffc000
3fc000
03c000
07c000
07c000
07c000
078000
0f8000
0f8000
078000
ENDCHAR
STARTCHAR mWa
ENCODING  31296
SWIDTH 520 0
DWIDTH 28 0
BBX 25 21 0 -3
BITMAP
0ffff800
3def3c00
79ef3c00
79ef3c00
f1cf3c00
f3df3c00
f3dffc00
7f8cf800
3000f800
0000f800
0000f000
0001f000
0001f000
0003e000
0003e000
0003e000
003fff00
00ffff00
00f80f00
00f00780
00e00780
ENDCHAR
STARTCHAR `se/s2e
ENCODING  31297
SWIDTH 440 0
DWIDTH 23 0
BBX 20 12 1 3
BITMAP
0031f0
79f9f0
7cf9f0
7cf9f0
7cf9f0
78f9f0
78f9e0
f8f9c0
f8ff80
f9e000
ff8000
780000
ENDCHAR
STARTCHAR `su/s2u
ENCODING  31298
SWIDTH 540 0
DWIDTH 28 0
BBX 25 12 1 3
BITMAP
00f1f000
7df9f000
7cf9f000
7cf9f000
7cf9f000
78f9e000
78f9e000
f8fbff80
f8ffff00
f9e00f00
ff800780
78000300
ENDCHAR
STARTCHAR `si/s2i
ENCODING  31299
SWIDTH 520 0
DWIDTH 27 0
BBX 24 19 1 -2
BITMAP
0003c0
79f3e0
f9f3e0
79f3c0
79f3c0
f9f3c0
f9ffc0
f9cfc0
ff07c0
200780
000780
000f80
000f80
000f06
000f1e
000ffe
000ffe
00001f
00000e
ENDCHAR
STARTCHAR `sa/s2a
ENCODING  31300
SWIDTH 400 0
DWIDTH 22 0
BBX 19 17 1 0
BITMAP
0063e0
f9f3e0
f9f3e0
79f3e0
79f3e0
f9f3c0
f9ffc0
f9cfc0
ff07c0
2007c0
000780
000f80
000f80
000f80
000f80
000f80
000f80
ENDCHAR
STARTCHAR `sE/s2E
ENCODING  31301
SWIDTH 480 0
DWIDTH 26 0
BBX 23 18 1 -1
BITMAP
0003c0
39f3e0
f9f3e0
79f3c0
79f3c0
f9f3c0
f9ffc0
f9dfc0
ff8780
7c0780
000780
0007f8
000ffc
000f1e
000f1e
000f1e
000ffc
000ff0
ENDCHAR
STARTCHAR `s/s2
ENCODING  31302
SWIDTH 540 0
DWIDTH 29 0
BBX 26 17 1 -1
BITMAP
0000c7c0
03e7e7c0
03e3c7c0
03e3c7c0
03c3c780
07c3cf00
07c7fc00
0fff0000
0f7c0000
1f000000
3e000000
3c000000
7c000000
f8000000
f8000000
f8000000
60000000
ENDCHAR
STARTCHAR `so/s2o
ENCODING  31303
SWIDTH 420 0
DWIDTH 22 0
BBX 19 18 1 -1
BITMAP
0033e0
f9f3e0
f9f1e0
78f1e0
f9f1e0
f9f1e0
f9ffc0
ffff00
ffc000
07c000
0f8000
0f0000
1f0000
1e0000
3e0000
7c0000
7c0000
3c0000
ENDCHAR
STARTCHAR `sWa/s2Wa
ENCODING  31304
SWIDTH 400 0
DWIDTH 22 0
BBX 19 17 1 0
BITMAP
0063e0
f9f3e0
f9f3e0
79f3e0
79f3e0
f9f3c0
f9ffc0
f9cfc0
ff07c0
2007c0
000780
000f80
000f80
000f80
000f80
000f80
000f80
ENDCHAR
STARTCHAR re
ENCODING  31305
SWIDTH 320 0
DWIDTH 17 0
BBX 14 19 1 0
BITMAP
00f0
01f8
00f8
00f0
01f0
01e0
03c0
07c0
0f80
1e00
3c00
7800
f800
f000
f078
f0f8
fdf8
7ff8
307c
ENDCHAR
STARTCHAR ru
ENCODING  31306
SWIDTH 380 0
DWIDTH 20 0
BBX 17 20 1 0
BITMAP
078000
07c000
07c000
078000
0f0000
0f0000
1e0000
3c0000
780000
f00000
f00000
f80f00
ffff00
7fdf00
07cf00
07c780
078000
078000
07c000
078000
ENDCHAR
STARTCHAR ri
ENCODING  31307
SWIDTH 320 0
DWIDTH 17 0
BBX 14 19 1 0
BITMAP
00f0
01f8
00f8
00f0
01f0
01e0
03c0
07c0
0f80
1e00
3c00
7808
f8fc
f07c
f078
f070
ffe0
7f00
3000
ENDCHAR
STARTCHAR ra
ENCODING  31308
SWIDTH 400 0
DWIDTH 21 0
BBX 18 19 1 0
BITMAP
00f000
01f800
00f000
00f000
01f000
01e000
03c000
078000
0f0000
1e0000
3c0f80
787f80
f8e780
f1e3c0
f1e1c0
f1c000
ffc000
7f0000
100000
ENDCHAR
STARTCHAR rE
ENCODING  31309
SWIDTH 380 0
DWIDTH 21 0
BBX 18 19 1 0
BITMAP
00f000
01f800
00f800
00f000
01f000
01e000
03c000
07c000
0f8000
1e0000
3c0000
783f80
f8e780
f1e7c0
f1e7c0
f1e780
ffff00
7ff800
300000
ENDCHAR
STARTCHAR r
ENCODING  31310
SWIDTH 340 0
DWIDTH 18 0
BBX 15 18 1 -1
BITMAP
07fc
1f7c
3c7c
783e
7800
f800
f800
f800
f000
f000
f000
f000
f018
f07c
f87c
fffc
7f7e
0038
ENDCHAR
STARTCHAR ro
ENCODING  31311
SWIDTH 380 0
DWIDTH 20 0
BBX 17 18 1 0
BITMAP
007e00
0fef80
1de780
39e780
79e780
79ef00
f8fe00
f00000
f00000
f00000
f00000
f00000
f00000
f07800
f8f800
f8f800
7ffc00
3c7c00
ENDCHAR
STARTCHAR rWa
ENCODING  31312
SWIDTH 400 0
DWIDTH 22 0
BBX 19 21 0 0
BITMAP
1c01e0
3e03e0
1e03e0
1fffe0
1ff800
00f800
00f000
01f000
03e000
07c000
0f8000
1f0000
3e0fc0
7c3fc0
78e7c0
f0e3c0
f1e1c0
f1e000
ffe000
7f8000
100000
ENDCHAR
STARTCHAR se
ENCODING  31313
SWIDTH 320 0
DWIDTH 16 0
BBX 13 20 1 -1
BITMAP
0780
0f80
0f80
0f80
1fe0
38f0
78f8
f8f8
f8f8
f8f8
f0f8
f0f8
f0f8
f0f8
f0f8
f0f8
f0f8
f8f8
f8f8
6060
ENDCHAR
STARTCHAR su
ENCODING  31314
SWIDTH 440 0
DWIDTH 23 0
BBX 20 20 1 -1
BITMAP
078000
0f8000
0f8000
0f8000
1fe000
38f000
78f800
f8f8e0
f8f9e0
f8fbe0
f0ffe0
f0f9f0
f0f8c0
f0f800
f0f800
f0f800
f0f800
f8f800
f8f800
606000
ENDCHAR
STARTCHAR si
ENCODING  31315
SWIDTH 440 0
DWIDTH 23 0
BBX 20 21 1 -2
BITMAP
078000
0f8000
0f8000
0f8000
1fe000
38f000
78f800
f8f800
f8f800
f0f800
f0f800
f0f800
f0f800
f0f800
f0f800
f0f800
f0f8f0
f8f9e0
f8ffe0
6061f0
0000f0
ENDCHAR
STARTCHAR sa
ENCODING  31316
SWIDTH 320 0
DWIDTH 16 0
BBX 13 20 1 -1
BITMAP
0780
0f80
0f80
0f80
1fe0
38f0
78f8
78f8
f0f8
f0f8
f0f8
f0f8
f8f8
f8f8
40f8
00f8
00f8
00f8
00f8
0060
ENDCHAR
STARTCHAR sE
ENCODING  31317
SWIDTH 420 0
DWIDTH 22 0
BBX 19 19 1 0
BITMAP
0f8000
0f8000
0f8000
0fc000
1fe000
38f000
78f800
f8f800
f8f800
f0f800
f0f800
f0f800
f0f900
f0ffc0
f0f9e0
f0f1e0
f8f1e0
f8ffc0
f8ff80
ENDCHAR
STARTCHAR s
ENCODING  31318
SWIDTH 320 0
DWIDTH 16 0
BBX 13 20 1 -1
BITMAP
1e00
1f00
1f00
0f80
1fe0
38f0
78f0
f8f8
f8f8
f0f8
f0f8
f0f8
f0f8
f0f8
f0f8
f0f8
f0f8
f8f8
f8f8
6060
ENDCHAR
STARTCHAR so
ENCODING  31319
SWIDTH 320 0
DWIDTH 16 0
BBX 13 19 1 0
BITMAP
0f80
0f80
0f80
0fc0
1fe0
38f0
78f8
f8f8
f8f8
f8f8
f0f8
f0f8
f0f8
f060
f000
f000
f800
f800
f800
ENDCHAR
STARTCHAR sWa
ENCODING  31320
SWIDTH 420 0
DWIDTH 22 0
BBX 19 23 1 -4
BITMAP
078000
0f8000
0f8000
0fc000
1fe000
3cf000
78f800
f8f800
f8f800
f0f800
f8f800
f8f800
f8f800
f8f800
40f800
00f800
00f800
00f800
1fffe0
1fe1e0
1e01e0
1c00e0
180000
ENDCHAR
STARTCHAR xe
ENCODING  31321
SWIDTH 400 0
DWIDTH 20 0
BBX 17 21 1 0
BITMAP
000780
f00f80
7fff80
7fef80
fbe780
e3f000
07f800
0e7800
1e7c00
3c7c00
3c7c00
3c7c00
3c7c00
7c7c00
7c7c00
7c7c00
7c7c00
7c7c00
3c7c00
3e7c00
3e7c00
ENDCHAR
STARTCHAR xu
ENCODING  31322
SWIDTH 480 0
DWIDTH 25 0
BBX 22 21 1 0
BITMAP
000780
780f80
787f80
7fff80
79e780
f3e000
07f800
0e7c00
1e3c30
1e3cf0
3e3cf0
3e3ff8
3e3efc
3e7c70
3e7c00
3e7c00
3e7c00
3e7c00
3e7c00
3e3e00
1e3c00
ENDCHAR
STARTCHAR xi
ENCODING  31323
SWIDTH 480 0
DWIDTH 25 0
BBX 22 23 1 -2
BITMAP
000780
780f80
78ff80
7ff780
79e780
f3e000
03f800
077c00
0e7c00
1e3c00
1e3c00
3e3c00
3e3c00
3e7c00
3e7c00
3e7c00
3e7c00
3e7c00
3e7c78
3e7cf8
3f3ff8
1830f8
00007c
ENDCHAR
STARTCHAR xa
ENCODING  31324
SWIDTH 400 0
DWIDTH 20 0
BBX 17 21 1 0
BITMAP
000780
f80f80
7bff80
7fef80
7be380
e3f000
0ff800
1e7c00
1e7c00
3c7c00
3c7c00
3c7c00
3c7c00
3c7c00
3e7c00
3c7c00
007c00
007c00
007c00
007c00
003c00
ENDCHAR
STARTCHAR xE
ENCODING  31325
SWIDTH 460 0
DWIDTH 23 0
BBX 20 21 1 0
BITMAP
000780
f00f00
7fff80
7fef80
fbc780
e3e000
07f000
0e7800
1e7800
3c7c00
3c7c00
3c7c00
3c7c00
7c7c00
7c7c80
7c7fe0
7c7cf0
7c7cf0
3c7cf0
3e7fe0
3e7fc0
ENDCHAR
STARTCHAR x
ENCODING  31326
SWIDTH 400 0
DWIDTH 20 0
BBX 17 21 0 0
BITMAP
000780
f80f80
7fff80
7fef80
f9e380
e1f800
03fc00
073c00
0f3e00
1e3e00
1e3e00
1e3e00
1e3e00
3e3e00
3e3e00
3e3e00
3e3e00
3e3e00
1e3e00
1f3e00
1f3e00
ENDCHAR
STARTCHAR xo
ENCODING  31327
SWIDTH 400 0
DWIDTH 21 0
BBX 18 21 1 0
BITMAP
000780
780f80
79ff80
7fe780
79e3c0
f3e000
07f800
0e7c00
1e3c00
1e3e00
3e3c00
3e3c00
3e3c00
3e3c00
3e3e00
3e3c00
3e0000
3e0000
3e0000
3e0000
1e0000
ENDCHAR
STARTCHAR xWa
ENCODING  31328
SWIDTH 420 0
DWIDTH 23 0
BBX 20 25 0 -3
BITMAP
000700
f00f00
781f00
7fff00
fffc00
03e000
03e000
07f000
0e7800
1e7c00
3c7c00
3c7c00
3c7c00
3c7c00
3c7c00
7c7c00
3e7c00
307c00
007c00
007c00
007c00
0ffff0
0f81f0
0f00f0
0e00f0
ENDCHAR
STARTCHAR qe
ENCODING  31329
SWIDTH 380 0
DWIDTH 19 0
BBX 16 20 1 -1
BITMAP
03e0
03e0
03e0
03e0
03e0
03fe
1fff
7bef
f3cf
f3cf
f3ce
f3fc
ffe0
63c0
07c0
07c0
07c0
07c0
07c0
0300
ENDCHAR
STARTCHAR qu
ENCODING  31330
SWIDTH 380 0
DWIDTH 20 0
BBX 17 20 1 -1
BITMAP
03e000
03e000
03e000
03e000
03e000
03fe00
1fff00
3bcf00
73cf00
f3cf00
f3ce00
fffc00
ffe300
63cf00
07df00
07ff80
07cf80
07c400
07c000
030000
ENDCHAR
STARTCHAR qi
ENCODING  31331
SWIDTH 380 0
DWIDTH 20 0
BBX 17 21 1 -2
BITMAP
03e000
03e000
03e000
03e000
03e000
03fe00
0fff00
3fcf00
73cf00
f3cf00
f3cf00
f3fe00
fff000
63c000
07c000
07c000
07c780
07cf00
07ff00
030f80
000780
ENDCHAR
STARTCHAR qa
ENCODING  31332
SWIDTH 440 0
DWIDTH 23 0
BBX 20 21 2 -1
BITMAP
003c00
007c00
003c00
003c00
007fc0
01ffe0
07fdf0
0f7df0
1e79e0
1e79e0
1e7f80
1ff800
047800
007800
00f000
00e000
7fc000
f80000
f00000
f00000
e00000
ENDCHAR
STARTCHAR qE
ENCODING  31333
SWIDTH 380 0
DWIDTH 19 0
BBX 16 20 1 -1
BITMAP
03e0
03e0
03e0
03e0
03e0
03fe
1fff
3bcf
73cf
f3cf
f3ce
fbfc
ffe0
63c0
07fe
07cf
07cf
07cf
07fe
0208
ENDCHAR
STARTCHAR q
ENCODING  31334
SWIDTH 380 0
DWIDTH 20 0
BBX 17 22 2 -1
BITMAP
7c0000
3c0000
3c0000
7fe000
79e000
03e000
03e000
03fe00
1fff00
3bef80
73cf80
f3cf00
f3ce00
fffc00
ffe000
73c000
03c000
07c000
07c000
07c000
07e000
030000
ENDCHAR
STARTCHAR qo
ENCODING  31335
SWIDTH 380 0
DWIDTH 19 0
BBX 16 21 1 0
BITMAP
03f8
073c
0f3c
0f3c
0f38
07f0
03ec
03ff
1fef
7bef
f3cf
f3cf
f3fe
fff8
fbc0
07c0
07c0
07c0
07c0
07c0
0300
ENDCHAR
STARTCHAR qWe
ENCODING  31337
SWIDTH 460 0
DWIDTH 24 0
BBX 21 20 1 -1
BITMAP
03e000
03e000
03e000
03e000
03e000
03fe00
1fff00
3fcf00
73cf00
f3cf00
f3ce00
f3fc00
ffe000
63fff8
07fe78
07de78
07de78
07cff0
07c000
030000
ENDCHAR
STARTCHAR qWi
ENCODING  31339
SWIDTH 620 0
DWIDTH 32 0
BBX 29 20 1 -1
BITMAP
03e00000
03e00000
03e00000
03e00000
03e00200
03fe3f00
1fff1e00
3bef1e00
73cffe00
f3cffe00
f3cf3ff8
fbfe1ff8
ffe000f8
63c00078
07c00000
07c00000
07c00000
07c00000
07c00000
03000000
ENDCHAR
STARTCHAR qWa
ENCODING  31340
SWIDTH 360 0
DWIDTH 19 0
BBX 16 22 1 -2
BITMAP
03e0
03e0
03e0
03fc
0fff
3fef
7bef
f3cf
f3cf
f3de
fff8
7bc0
03c0
07c0
3ffc
7c3e
7c3e
783e
f03e
003e
003e
001e
ENDCHAR
STARTCHAR qWE
ENCODING  31341
SWIDTH 420 0
DWIDTH 22 0
BBX 19 23 0 -3
BITMAP
007c00
007c00
007c00
007900
00ffc0
07f9e0
0e79e0
1e79e0
1e79e0
3e7bc0
1fff00
1ff800
00f800
00ffc0
00f9e0
00f9e0
00f9e0
00ffc0
7fe000
7c0000
780000
780000
f00000
ENDCHAR
STARTCHAR qWu/qW
ENCODING  31342
SWIDTH 600 0
DWIDTH 31 0
BBX 28 20 1 0
BITMAP
01e00000
03e00000
03e00000
03e00000
03e03e00
03fc3e00
0ffe3e00
3fcf3e00
7bcffc00
f3cfffe0
f3cf03e0
f3de03e0
fffc01f0
fbc00040
07c00000
07c00000
07c00000
07c00000
07c00000
03c00000
ENDCHAR
STARTCHAR Qe
ENCODING  31345
SWIDTH 380 0
DWIDTH 20 0
BBX 17 22 1 0
BITMAP
000f00
780f00
7fff00
7fef80
7be780
63e000
03e000
03ec00
07ff00
3fef00
73cf00
f3cf00
f3cf00
f3fe00
fff800
7bc000
07c000
07c000
07c000
07c000
07c000
03c000
ENDCHAR
STARTCHAR Qu
ENCODING  31346
SWIDTH 380 0
DWIDTH 20 0
BBX 17 22 1 0
BITMAP
000f00
780f00
7fff00
7fef80
7be780
63e000
03e000
03ec00
07ff00
3fcf00
73cf00
f3cf00
f3cf00
f3fe00
fff800
fbc700
07cf00
07ff00
07ff80
07c700
07c000
03c000
ENDCHAR
STARTCHAR Qi
ENCODING  31347
SWIDTH 380 0
DWIDTH 20 0
BBX 17 24 1 -2
BITMAP
000f00
780f00
7fff00
7fef80
7be780
63e000
03e000
03e000
03fe00
1fcf00
73cf00
f3cf00
f3cf00
f3de00
fffc00
fbc000
07c000
07c000
07c700
07cf00
07ff00
03ff80
000f80
000200
ENDCHAR
STARTCHAR Qa
ENCODING  31348
SWIDTH 440 0
DWIDTH 23 0
BBX 20 24 2 -2
BITMAP
0000f0
0f01e0
0f9fe0
0ffff0
0fbcf0
0e3c00
003c00
007c00
007fe0
03fdf0
0f7df0
1e7de0
1e79e0
1e7fc0
1fff00
0e7800
007800
007000
00e000
0fc000
ff0000
f80000
f00000
e00000
ENDCHAR
STARTCHAR QE
ENCODING  31349
SWIDTH 380 0
DWIDTH 20 0
BBX 17 22 1 0
BITMAP
000f00
780f00
7fff00
7fef80
7be780
63e000
03e000
03ec00
07ff00
3fcf00
73cf00
f3cf00
f3cf00
f3fe00
fff800
fbc000
07fc00
07ff00
07cf00
07cf00
07ce00
03fc00
ENDCHAR
STARTCHAR Q
ENCODING  31350
SWIDTH 440 0
DWIDTH 24 0
BBX 21 25 1 -1
BITMAP
000700
701f00
78ff00
7fff00
7bef00
f3e000
03ff00
03de00
001e00
001e00
001ff0
00fff8
03de78
07be78
0fbe78
0fbef0
0fffe0
07ff00
033e00
003e00
003e00
003e00
003e00
003e00
001800
ENDCHAR
STARTCHAR Qo
ENCODING  31351
SWIDTH 440 0
DWIDTH 23 0
BBX 20 24 1 0
BITMAP
2001e0
7803e0
7fffe0
7ff9f0
7b9ce0
c79e00
079c00
07bc00
07f800
03e000
01ff00
07ff80
3fe780
79e780
79e780
fbef00
fbfe00
7ff000
33e000
03e000
03c000
03c000
03e000
03c000
ENDCHAR
STARTCHAR QWe
ENCODING  31353
SWIDTH 460 0
DWIDTH 24 0
BBX 21 22 1 -1
BITMAP
000f00
780f00
7fff00
7fef80
7be780
73e000
03e000
03fe00
1fff00
3fcf00
73cf00
f3cf00
f3ce00
f3fc00
ffe000
63fff8
07fe78
07de78
07de78
07cff0
07c000
030000
ENDCHAR
STARTCHAR QWi
ENCODING  31355
SWIDTH 620 0
DWIDTH 32 0
BBX 29 22 1 -1
BITMAP
000f0000
780f0000
7fff0000
7fef8000
7be78000
73e00000
03e00200
03fe3f00
1fff1e00
3bef1e00
73cffe00
f3cffe00
f3cf3ff8
fbfe1ff8
ffe000f8
63c00078
07c00000
07c00000
07c00000
07c00000
07c00000
03000000
ENDCHAR
STARTCHAR QWa
ENCODING  31356
SWIDTH 380 0
DWIDTH 21 0
BBX 18 25 0 -3
BITMAP
000780
780f80
7fff80
7fef80
79e7c0
71e000
01ff00
1fff00
3bef80
7bef80
fbef00
f3ef00
fffc00
ffc000
23c000
03c000
03f800
3ffe00
7c1e00
7c1e00
781e00
601e00
001e00
001f00
001800
ENDCHAR
STARTCHAR QWE
ENCODING  31357
SWIDTH 420 0
DWIDTH 23 0
BBX 20 26 0 -3
BITMAP
0001e0
1f03e0
0f7fe0
0ffff0
0f79f0
1c7800
007fc0
03ffe0
0f79e0
1e79e0
1e79e0
3efbc0
3eff80
1ffe00
0cf800
00ff80
00ffc0
00f1e0
00f1e0
00fbc0
0fff80
7f0000
7c0000
780000
f00000
600000
ENDCHAR
STARTCHAR QWu/QW
ENCODING  31358
SWIDTH 600 0
DWIDTH 31 0
BBX 28 22 1 -1
BITMAP
000f0000
780f0000
7fff0000
7fef8000
7be78000
73e00e00
03e03e00
03fe3e00
1fef3e00
7bcf3e00
f3cffe40
f3cfe3e0
f3cf03e0
fffe01e0
ffe000f0
63c00000
07c00000
07c00000
07c00000
07c00000
07c00000
03000000
ENDCHAR
STARTCHAR be
ENCODING  31523
SWIDTH 320 0
DWIDTH 16 0
BBX 13 19 1 -1
BITMAP
0fe0
1cf0
38f0
78f8
78f8
f8f8
f8f8
f8f8
f8f8
f8f8
f8f8
f8f8
f8f8
f8f8
f8f8
f8f8
f8f8
fcf8
6060
ENDCHAR
STARTCHAR bu
ENCODING  31524
SWIDTH 460 0
DWIDTH 23 0
BBX 20 19 1 -1
BITMAP
0fe000
1df000
38f800
78f800
78f8e0
f8f9e0
f8fbe0
f8ffe0
f8fdf0
f8f8c0
f8f800
f8f800
f8f800
f8f800
f8f800
f8f800
f8f800
fcf800
606000
ENDCHAR
STARTCHAR bi
ENCODING  31525
SWIDTH 440 0
DWIDTH 23 0
BBX 20 20 1 -2
BITMAP
0fe000
1df000
38f800
78f800
78f800
f8f800
f8f800
f8f800
f8f800
f8f800
f8f800
f8f800
f8f800
f8f800
f8f800
f8f8f0
f8f9e0
fcffe0
6061f0
0000f0
ENDCHAR
STARTCHAR ba
ENCODING  31526
SWIDTH 300 0
DWIDTH 16 0
BBX 13 19 0 -1
BITMAP
0fe0
1df0
38f8
78f8
f8f8
f8f8
f8f8
f8f8
f8f8
f8f8
f8f8
f8f8
f8f8
78f8
00f8
00f8
00f8
00f8
0060
ENDCHAR
STARTCHAR bE
ENCODING  31527
SWIDTH 400 0
DWIDTH 22 0
BBX 19 19 1 -1
BITMAP
0fe000
1df000
38f000
78f800
78f800
f8f800
f8f800
f8f800
f8f800
f8f800
f8f800
f8f800
f8ffc0
f8ffe0
f8f9e0
f8f9e0
f8f9e0
fcffc0
604100
ENDCHAR
STARTCHAR b
ENCODING  31528
SWIDTH 440 0
DWIDTH 23 0
BBX 20 18 0 0
BITMAP
003f80
00f3c0
01e3e0
01e3e0
03e3e0
03e3e0
3fe3e0
fbe3e0
f3e3e0
f3e3e0
c3e3e0
03e3e0
03e3e0
03e3e0
03e3e0
03e3e0
03e3f0
01e1f0
ENDCHAR
STARTCHAR bo
ENCODING  31529
SWIDTH 300 0
DWIDTH 16 0
BBX 13 19 1 -1
BITMAP
0fe0
3df0
78f0
78f8
f8f8
f8f8
f8f8
f8f8
f8f8
f8f8
f8f0
f8f8
f8f8
f800
f800
f800
f800
f800
6000
ENDCHAR
STARTCHAR bWa
ENCODING  31530
SWIDTH 420 0
DWIDTH 22 0
BBX 19 21 1 -3
BITMAP
0fc000
39f000
78f000
78f800
f8f800
f8f800
f8f800
f8f800
f8f800
f8f800
f8f800
f8f800
f8f800
70f800
00f800
00f800
00f800
1fffc0
1f03c0
1e03e0
1c01e0
ENDCHAR
STARTCHAR ve
ENCODING  31531
SWIDTH 360 0
DWIDTH 20 0
BBX 17 22 0 0
BITMAP
000f00
f81f00
7fff00
7f9f00
f80f80
e1f000
07f800
0e3c00
1e3c00
3c3c00
3c3c00
3c3c00
3c3c00
3c3c00
3c3c00
3c3c00
3e3c00
3e7c00
3e7c00
3e7c00
3e7c00
1c3800
ENDCHAR
STARTCHAR vu
ENCODING  31532
SWIDTH 440 0
DWIDTH 24 0
BBX 21 22 0 0
BITMAP
000f00
f81f00
7fff00
7f8f00
780780
e1e000
07f800
0e7c00
1e3c00
3c3c70
3c3cf0
3c3df0
3c3ff8
3c3c78
3c3c00
3c3c00
3c7c00
3c7c00
3c7c00
3c7c00
3e7c00
3e3c00
ENDCHAR
STARTCHAR vi
ENCODING  31533
SWIDTH 440 0
DWIDTH 23 0
BBX 20 23 1 -1
BITMAP
000f00
f81f00
7fff00
7f9f00
f80f00
e3f000
0ff800
1e7800
1c7c00
3c7c00
3c7c00
3c7c00
3c7c00
3c7c00
3c7c00
3c7c00
3c7c00
3c7800
3c7860
3c7cf0
3e7ff0
1c39f0
0000f0
ENDCHAR
STARTCHAR va
ENCODING  31534
SWIDTH 360 0
DWIDTH 20 0
BBX 17 22 1 0
BITMAP
000f00
f81f00
7fff00
7f9f00
f80f80
e3f000
0ff800
1e7c00
3c7c00
3c7c00
3c7c00
7c7c00
7c7c00
7c7c00
7c7c00
7c7c00
3e7c00
387c00
007c00
007c00
007c00
003c00
ENDCHAR
STARTCHAR vE
ENCODING  31535
SWIDTH 440 0
DWIDTH 24 0
BBX 21 22 1 0
BITMAP
000f00
f81f00
7fff00
7f9f00
f00f00
e3f000
0ff800
1c7c00
3c7c00
7c7c00
7c7c00
7c7c00
7c7c00
7c7c00
7c7c00
7c7c00
7c7fe0
7c7ff8
7c7c78
7c7c78
7c7ff0
7c3fc0
ENDCHAR
STARTCHAR v
ENCODING  31536
SWIDTH 440 0
DWIDTH 24 0
BBX 21 22 0 0
BITMAP
0000f0
0f81f0
07fff0
07f9f0
0f80f8
0e1f00
007780
01e3c0
01e3c0
03e3e0
03e3e0
7fe3e0
f3e3e0
f3e3e0
e3e3e0
43e3e0
03e3e0
03e3c0
03e3c0
03e3c0
03e3e0
03e3e0
ENDCHAR
STARTCHAR vo
ENCODING  31537
SWIDTH 360 0
DWIDTH 20 0
BBX 17 22 0 0
BITMAP
000f00
f81f00
7fff00
7f8f80
780780
e1f000
07f800
0e3c00
1e3c00
1e3c00
3e3c00
3e3c00
3e3c00
3e7c00
3e7c00
3e7c00
3e3c00
3e0000
3e0000
3e0000
3e0000
1c0000
ENDCHAR
STARTCHAR vWa
ENCODING  31538
SWIDTH 420 0
DWIDTH 22 0
BBX 19 21 1 -3
BITMAP
0fc000
39f000
78f000
78f800
f8f800
f8f800
f8f800
f8f800
f8f800
f8f800
f8f800
f8f800
f8f800
70f800
00f800
00f800
00f800
1fffc0
1f03c0
1e03e0
1c01e0
ENDCHAR
STARTCHAR te
ENCODING  31539
SWIDTH 400 0
DWIDTH 21 0
BBX 18 18 1 0
BITMAP
01e000
03e000
01e000
01e000
01e780
0fff80
ffe780
fbe7c0
f3e3c0
e3e000
43e000
03e000
03c000
03c000
03c000
03e000
03e000
01c000
ENDCHAR
STARTCHAR tu
ENCODING  31540
SWIDTH 400 0
DWIDTH 21 0
BBX 18 18 1 0
BITMAP
01e000
03e000
01e000
01e000
01e780
0fff80
ffe780
fbe780
f3e3c0
e3e000
43e700
03ef00
03ff00
03ff00
03c700
03e000
03e000
01c000
ENDCHAR
STARTCHAR ti
ENCODING  31541
SWIDTH 400 0
DWIDTH 21 0
BBX 18 19 1 -1
BITMAP
01e000
01f000
01f000
01e000
01e3c0
0fffc0
ffe7c0
f9e3c0
f3e1c0
e3e000
43e000
03e000
03e000
03e000
03e380
03e780
03ff80
018f80
0007c0
ENDCHAR
STARTCHAR ta
ENCODING  31542
SWIDTH 440 0
DWIDTH 23 0
BBX 20 20 1 -1
BITMAP
00f000
00f800
00f800
00f800
00f800
00fbe0
0fffe0
3ffbe0
3cf9f0
3cf8f0
78f000
00f000
00f000
00f000
01e000
7fc000
f80000
780000
f00000
e00000
ENDCHAR
STARTCHAR tE
ENCODING  31543
SWIDTH 400 0
DWIDTH 21 0
BBX 18 18 1 0
BITMAP
01e000
03e000
01e000
01e000
01e780
0fff80
ffe780
fbe780
f3e3c0
e3e000
43c000
03fe00
03ff00
03c780
03c780
03c700
03ff00
01fc00
ENDCHAR
STARTCHAR t
ENCODING  31544
SWIDTH 400 0
DWIDTH 21 0
BBX 18 21 1 0
BITMAP
3c0000
3e0000
3e0000
3e2000
3ff000
01f000
01e000
01e000
01ffc0
7fffc0
fde7c0
f3e3c0
f3e080
e3e000
03e000
03e000
03e000
03c000
03e000
03e000
03e000
ENDCHAR
STARTCHAR to
ENCODING  31545
SWIDTH 400 0
DWIDTH 21 0
BBX 18 20 1 1
BITMAP
01f800
03fc00
079e00
079e00
079c00
07f800
03e000
01e7c0
0fffc0
ffe7c0
fbe3c0
f3e1c0
e3e000
43e000
03e000
03e000
03e000
03e000
03e000
03e000
ENDCHAR
STARTCHAR tWa
ENCODING  31546
SWIDTH 400 0
DWIDTH 21 0
BBX 18 21 1 -4
BITMAP
01e000
01e000
01e000
01e000
01efc0
3fff80
ffe780
fbe3c0
f3e1c0
e3e000
03e000
03e000
03e000
03e000
03c000
03fe00
7ffe00
7c1e00
780f00
f00700
600000
ENDCHAR
STARTCHAR ce
ENCODING  31547
SWIDTH 400 0
DWIDTH 21 0
BBX 18 21 1 0
BITMAP
000780
780780
7cff80
7ff7c0
79e3c0
71e000
01e000
03ef80
0fff80
ffe780
f3e7c0
f3e1c0
e3e000
c3c000
03c000
03c000
03c000
07c000
07c000
03e000
03c000
ENDCHAR
STARTCHAR cu
ENCODING  31548
SWIDTH 400 0
DWIDTH 21 0
BBX 18 21 1 0
BITMAP
000380
780f80
787f80
7fffc0
79e7c0
f1e000
01e000
03e780
0fff80
ffef80
f3e7c0
f3e3c0
e3c000
c3cf00
03df00
03ff00
03cf00
03c700
03c000
03e000
03c000
ENDCHAR
STARTCHAR ci
ENCODING  31549
SWIDTH 400 0
DWIDTH 21 0
BBX 18 22 1 -1
BITMAP
000380
780780
7c7f80
7fff80
7de7c0
79e000
01e000
03e780
0fff80
ffe780
f3e780
f3e3c0
e3e000
c3e000
03e000
03c000
03c000
03c780
03cf80
03ff80
038f80
000780
ENDCHAR
STARTCHAR ca
ENCODING  31550
SWIDTH 440 0
DWIDTH 23 0
BBX 20 23 1 -2
BITMAP
0001e0
3c03e0
1e7fe0
1ffbe0
1ef9f0
3cf800
00f800
00f000
00ffe0
3fffe0
3ef3e0
3cf1f0
38f040
70f000
00f000
01e000
01c000
038000
ff0000
f80000
f00000
e00000
c00000
ENDCHAR
STARTCHAR cE
ENCODING  31551
SWIDTH 400 0
DWIDTH 21 0
BBX 18 21 1 0
BITMAP
000780
780f80
78ff80
7ff780
79e7c0
f1e000
01e000
03ff80
0fff80
ffe780
f3e780
f3c180
e3c000
c3c000
03fe00
03ff00
03cf00
03c700
03c700
03fe00
03fc00
ENDCHAR
STARTCHAR c
ENCODING  31552
SWIDTH 480 0
DWIDTH 25 0
BBX 22 24 0 0
BITMAP
780000
780780
7c0f80
7fff80
ffef80
03e780
03e600
03ff00
001f00
001e00
001e3c
00fffc
0ffe7c
0fbe3c
0f3e1c
0e3e00
043e00
003e00
003e00
003c00
003c00
003e00
003e00
001c00
ENDCHAR
STARTCHAR co
ENCODING  31553
SWIDTH 400 0
DWIDTH 21 0
BBX 18 25 1 0
BITMAP
100780
7c0780
3c0780
3e0700
3ffe00
3b9c00
071c00
071c00
079c00
07f800
03e000
03e780
0fff80
ffe780
f3e7c0
f3e3c0
e3e000
c3e000
03c000
03c000
03c000
03c000
03c000
03e000
03c000
ENDCHAR
STARTCHAR cWa
ENCODING  31554
SWIDTH 400 0
DWIDTH 22 0
BBX 19 22 0 -3
BITMAP
001f80
3fffc0
7ff7c0
79f3c0
79f1c0
61f000
01efc0
1fffc0
7fe7c0
79e3c0
71e1e0
e3e000
43e000
03e000
03e000
03e000
03ff00
7fff00
780f00
780f00
700600
400000
ENDCHAR
STARTCHAR `he/h2e
ENCODING  31555
SWIDTH 340 0
DWIDTH 18 0
BBX 15 19 1 -1
BITMAP
01f0
01f0
01f0
01e0
7fe0
79fe
79fe
f03e
e03e
003e
003c
007c
007c
007c
007c
007c
007c
00fc
0070
ENDCHAR
STARTCHAR `hu/h2u
ENCODING  31556
SWIDTH 440 0
DWIDTH 24 0
BBX 21 19 1 -1
BITMAP
01e000
03e000
01e000
01e000
7fe000
fbfe00
f1fc00
f03c00
e03df0
007ff0
007cf0
007c78
007c38
007c00
007800
007800
007800
007c00
006000
ENDCHAR
STARTCHAR `hi/h2i
ENCODING  31557
SWIDTH 460 0
DWIDTH 24 0
BBX 21 20 1 -2
BITMAP
01e000
03e000
01e000
01e000
7fe000
f9fe00
f9fe00
f03e00
e03e00
003e00
003c00
007c00
007c00
007c00
007c00
007cf0
007cf0
007ff0
0060f0
0000f8
ENDCHAR
STARTCHAR `ha/h2a
ENCODING  31558
SWIDTH 360 0
DWIDTH 19 0
BBX 16 20 1 -2
BITMAP
01f0
01f0
01f0
07f0
7ff2
79ff
781f
701e
603e
003e
003e
003c
007c
00f8
03e0
7f80
7800
7800
f000
4000
ENDCHAR
STARTCHAR `hE/h2E
ENCODING  31559
SWIDTH 420 0
DWIDTH 22 0
BBX 19 19 1 -1
BITMAP
01e000
03e000
01e000
01e000
7fe000
fbfe00
f1fe00
f03e00
e03c00
007c00
007c00
007c00
007fc0
007fe0
007ce0
007ce0
0078e0
007fc0
006000
ENDCHAR
STARTCHAR `h/h2
ENCODING  31560
SWIDTH 340 0
DWIDTH 17 0
BBX 14 19 1 0
BITMAP
03c0
07e0
03c0
0fc0
3fc0
7bfc
fbfc
f87c
f87c
f07c
007c
0078
0078
00f8
00f8
00f8
00f8
00f8
00f0
ENDCHAR
STARTCHAR `ho/h2o
ENCODING  31561
SWIDTH 540 0
DWIDTH 28 0
BBX 25 20 0 -1
BITMAP
001fff00
007fe780
00fde780
01f1e780
01f0e780
01e0ff00
7fe06000
fbe00000
fbe00000
f1f18000
e1ffc000
0087c000
0007c000
00078000
000f8000
000f8000
000f8000
000f8000
000f8000
000f8000
ENDCHAR
STARTCHAR hWe
ENCODING  31563
SWIDTH 540 0
DWIDTH 28 0
BBX 25 19 1 0
BITMAP
01e00000
03e00000
03e00000
01e00000
0fe00000
fffe0000
f3fe0000
f03e0e00
e03fff80
c03ff780
003ef780
003ef780
007cff80
007c7000
007c0000
007c0000
007c0000
007e0000
007c0000
ENDCHAR
STARTCHAR hWi
ENCODING  31565
SWIDTH 580 0
DWIDTH 31 0
BBX 28 19 1 -1
BITMAP
01e00000
03e00000
01e00000
01e00000
7fe23c00
fbfe7c00
f1fe7c00
f03e7c00
e03ff800
003ff800
003effe0
003c7fe0
007c01e0
007c01f0
007c0040
007c0000
007c0000
007c0000
00300000
ENDCHAR
STARTCHAR hWa
ENCODING  31566
SWIDTH 420 0
DWIDTH 23 0
BBX 20 22 1 -3
BITMAP
01e000
03e000
03e000
01e000
0fe000
fffe00
f3fe00
f03e00
e03e00
c03e00
003e00
003e00
003e00
007c00
0fff80
3f03e0
3e01e0
3c01e0
7c01e0
1003e0
0003f0
0003f0
ENDCHAR
STARTCHAR hWE
ENCODING  31567
SWIDTH 420 0
DWIDTH 22 0
BBX 19 22 1 -4
BITMAP
03e000
03e000
01e000
01e000
7fe000
fbfe00
f1fe00
f03c00
e03c00
007c00
007c00
007fc0
007ce0
0078e0
0078e0
00ffe0
0fff80
3f0000
3e0000
3c0000
780000
000000
ENDCHAR
STARTCHAR hWu/hW
ENCODING  31568
SWIDTH 560 0
DWIDTH 30 0
BBX 27 19 0 -1
BITMAP
01e00000
01e00000
01e00000
01e00000
7fe20c00
fbff7c00
79fe7c00
f03e7c00
e03e7c00
003ff800
003fe7c0
003e07c0
003c03c0
003c01e0
007c0000
007c0000
007c0000
007c0000
00300000
ENDCHAR
STARTCHAR ne
ENCODING  31571
SWIDTH 260 0
DWIDTH 13 0
BBX 10 19 1 0
BITMAP
7800
f800
7800
7800
f800
f800
ffc0
7fc0
03c0
07c0
0780
0f80
0f00
1f00
1f00
1e00
3e00
3e00
3e00
ENDCHAR
STARTCHAR nu
ENCODING  31572
SWIDTH 300 0
DWIDTH 17 0
BBX 14 18 1 0
BITMAP
f800
f800
f800
f800
f800
fe00
ff00
0f00
1f10
1ff8
3ff8
3cf8
7c7c
7810
f800
f800
f800
f800
ENDCHAR
STARTCHAR ni
ENCODING  31573
SWIDTH 300 0
DWIDTH 16 0
BBX 13 20 1 -2
BITMAP
f800
f800
f800
f800
f800
ff00
ff80
0f80
0f80
0f00
1f00
1e00
3e00
3c00
7c70
7cf0
7ff0
7ff0
00f8
0060
ENDCHAR
STARTCHAR na
ENCODING  31574
SWIDTH 300 0
DWIDTH 17 0
BBX 14 19 0 -1
BITMAP
0ffc
3ff8
7878
783c
f818
f800
f800
f800
f840
ffe0
43e0
03e0
03e0
03e0
03c0
03c0
03c0
03e0
03c0
ENDCHAR
STARTCHAR nE
ENCODING  31575
SWIDTH 280 0
DWIDTH 15 0
BBX 12 18 1 0
BITMAP
f800
f800
f800
f800
f800
ff00
ff80
0f80
0f80
0f00
1f00
1e80
3fe0
3ce0
7cf0
7ce0
7fe0
7fc0
ENDCHAR
STARTCHAR n
ENCODING  31576
SWIDTH 300 0
DWIDTH 17 0
BBX 14 19 0 -1
BITMAP
7fe0
79e0
79e0
73e0
e3c0
03c0
03fc
007c
007c
00f8
00f8
00f0
01f0
01e0
03e0
03e0
03c0
07e0
0300
ENDCHAR
STARTCHAR no
ENCODING  31577
SWIDTH 400 0
DWIDTH 21 0
BBX 18 20 1 -1
BITMAP
037f80
1ff780
3cf7c0
78f7c0
f8f780
f8ff00
f87000
f80000
f80000
f84000
ffe000
43e000
03e000
03c000
03c000
03c000
07c000
07c000
07c000
03c000
ENDCHAR
STARTCHAR nWa
ENCODING  31578
SWIDTH 340 0
DWIDTH 19 0
BBX 16 21 0 -3
BITMAP
0ffc
3ffc
787c
783c
f808
f800
f800
f800
f800
ffe0
43e0
03e0
03e0
03e0
03e0
03e0
03fe
7ffe
781e
780f
f00f
ENDCHAR
STARTCHAR Ne
ENCODING  31579
SWIDTH 380 0
DWIDTH 21 0
BBX 18 21 0 -1
BITMAP
000780
f80f80
7fff80
7fff80
79e7c0
f3e000
03c000
03c000
03fc00
03fc00
003c00
007c00
007800
00f800
00f000
01f000
01e000
03e000
03e000
03e000
018000
ENDCHAR
STARTCHAR Nu
ENCODING  31580
SWIDTH 400 0
DWIDTH 22 0
BBX 19 21 0 0
BITMAP
000700
f00f00
f81f00
7fff80
79ef80
f3c600
63c000
03c000
03f800
03fc00
007800
00f880
00ffc0
00ffc0
01f3c0
01e3e0
03e080
03c000
07c000
07c000
07c000
ENDCHAR
STARTCHAR Ni
ENCODING  31581
SWIDTH 400 0
DWIDTH 21 0
BBX 18 23 1 -2
BITMAP
000700
f00f00
f83f00
ffff00
fbcf80
f3c600
e3c000
03c000
03f800
03fc00
007c00
007800
00f800
00f000
01f000
01e000
01e000
03e380
03c780
03ff80
03ff80
0007c0
000300
ENDCHAR
STARTCHAR Na
ENCODING  31582
SWIDTH 380 0
DWIDTH 20 0
BBX 17 23 0 -1
BITMAP
000700
780f00
7fff00
7fff80
7be780
c3fe00
1ffe00
3c1e00
7c0f00
780700
780000
f80000
780000
7ff000
33f000
01e000
01e000
01e000
03e000
03e000
03e000
03e000
01c000
ENDCHAR
STARTCHAR NE
ENCODING  31583
SWIDTH 380 0
DWIDTH 20 0
BBX 17 21 0 0
BITMAP
000700
f00f00
f81f00
7fff80
79cf80
f3c600
63c000
03c000
03fc00
03fe00
003c00
007c00
007800
00f800
00f000
00ff00
01f780
01e780
03e780
03e700
03fe00
ENDCHAR
STARTCHAR N
ENCODING  31584
SWIDTH 360 0
DWIDTH 19 0
BBX 16 24 0 -1
BITMAP
f00f
f81e
f83e
fffe
ffff
0380
07e0
7fe0
f9e0
f3c0
f3c0
c3f8
03fc
0078
00f8
00f8
01f0
01f0
01e0
03e0
03c0
07c0
07c0
07c0
ENDCHAR
STARTCHAR No
ENCODING  31585
SWIDTH 420 0
DWIDTH 24 0
BBX 21 24 0 -1
BITMAP
000780
f80f80
7c7f80
7fff80
79e780
f1e000
21efe0
0ffe70
1c1e78
3c1e78
7c1e78
7c1ef0
7c0fe0
7c0000
7c7000
3ff000
01f000
01f000
01f000
01e000
01e000
01e000
01f000
01e000
ENDCHAR
STARTCHAR NWa
ENCODING  31586
SWIDTH 380 0
DWIDTH 20 0
BBX 17 26 1 -4
BITMAP
700780
780f00
7c1f00
7fff00
03c000
03c000
0ffe00
3c3e00
781e00
780e00
f80000
f80000
f80000
ffe000
7fe000
03e000
03e000
03e000
03e000
03e000
03e000
7ffe00
7f1e00
781e00
700f00
400000
ENDCHAR
STARTCHAR e/a
ENCODING  31587
SWIDTH 360 0
DWIDTH 18 0
BBX 15 20 1 -1
BITMAP
3e00
3e00
3e00
3e00
3e00
3fc0
1f80
0f80
0ff0
1ff8
3e78
3c7c
7c3c
783c
f83c
f83c
f83c
f83e
f83e
6030
ENDCHAR
STARTCHAR u/U
ENCODING  31588
SWIDTH 460 0
DWIDTH 24 0
BBX 21 20 1 -1
BITMAP
3e0000
3e0000
3e0000
3e0000
3e0000
3fc000
1f8000
0f8000
0f7000
1ff800
3e7800
3c7c00
7c3ff0
783ff0
f83cf0
f83c78
f83c20
f83c00
f83e00
603000
ENDCHAR
STARTCHAR i
ENCODING  31589
SWIDTH 460 0
DWIDTH 25 0
BBX 22 21 1 -2
BITMAP
3e0000
3e0000
3e0000
3e0000
3e0000
3fc000
1f8000
0f8000
0ff000
1ff800
3e7800
3c7c00
7c3c00
783c00
f83c00
f83c00
f83c78
f83cf8
f83ff8
6030f8
00007c
ENDCHAR
STARTCHAR a/A
ENCODING  31590
SWIDTH 340 0
DWIDTH 17 0
BBX 14 20 2 -1
BITMAP
3c00
3c00
3e00
3e00
3e00
3f80
3f80
1f00
1fe0
3ff0
7cf8
f8f8
f878
f078
f878
f078
0078
007c
007c
0000
ENDCHAR
STARTCHAR E
ENCODING  31591
SWIDTH 440 0
DWIDTH 23 0
BBX 20 20 1 -1
BITMAP
1e0000
3e0000
1e0000
1f0000
1f0000
1fc000
1fc000
0f8000
0f7000
1ff800
3e7800
3c7c00
7c3c00
783c00
f83fe0
f83cf0
f83cf0
f83cf0
f83fe0
603080
ENDCHAR
STARTCHAR I
ENCODING  31592
SWIDTH 340 0
DWIDTH 18 0
BBX 15 20 1 0
BITMAP
7800
7c00
7c00
7f80
7f00
0f00
1fc0
0780
0f80
1ff0
1ff8
3c78
7c7c
787c
787c
f87c
f87c
f87c
f87e
f83e
ENDCHAR
STARTCHAR o/O
ENCODING  31593
SWIDTH 340 0
DWIDTH 18 0
BBX 15 20 1 -1
BITMAP
3c00
3e00
3e00
3e00
3e00
3fc0
3f80
0f00
0ff0
1ff8
3e78
3c7c
7c7c
787c
f87c
f83e
f83c
f800
f800
6000
ENDCHAR
STARTCHAR e3
ENCODING  31594
SWIDTH 400 0
DWIDTH 22 0
BBX 19 22 1 -1
BITMAP
000f00
f81f00
7fff00
7fff00
fbef00
e3e000
03e000
03fc00
01f800
00f800
00f700
01ff80
03c780
03c7c0
0787c0
0787c0
0f87c0
0f87c0
0f87c0
0f87c0
0f83e0
060300
ENDCHAR
STARTCHAR ke
ENCODING  31595
SWIDTH 360 0
DWIDTH 19 0
BBX 16 20 1 -1
BITMAP
f800
f800
f800
f1f0
f7fc
ff3c
fe3e
1e3e
3e3e
3e3e
3c3e
3c3e
3c3e
3c3e
3c3e
3e3e
3e3e
3e3e
3e3f
1818
ENDCHAR
STARTCHAR ku
ENCODING  31596
SWIDTH 500 0
DWIDTH 25 0
BBX 22 20 1 -1
BITMAP
f80000
f80000
f80000
f1f000
f7fc00
ff3c00
fe3e00
1e3e38
3e3e78
3e3ef8
3c3ffc
3c3e7c
3c3e30
3c3e00
3c3e00
3e3e00
3e3e00
3e3e00
3e3f00
181800
ENDCHAR
STARTCHAR ki
ENCODING  31597
SWIDTH 500 0
DWIDTH 25 0
BBX 22 21 1 -2
BITMAP
f80000
f80000
f80000
f0f000
f7f800
ff3c00
fe3e00
1e3e00
3e3e00
3e3e00
3c3e00
3c3e00
3c3e00
3c3e00
3c3e00
3e3e00
3e3e3c
3e3e78
3e3ffc
18187c
00003c
ENDCHAR
STARTCHAR ka
ENCODING  31598
SWIDTH 360 0
DWIDTH 19 0
BBX 16 20 1 -1
BITMAP
f800
f800
f800
f8f0
fffc
ff3e
fe3e
1e1e
3e1e
3e1e
3e3e
3e3e
3e3e
3e3e
3e3e
3c3e
003e
003f
001f
0018
ENDCHAR
STARTCHAR kE
ENCODING  31599
SWIDTH 480 0
DWIDTH 24 0
BBX 21 20 1 -1
BITMAP
f80000
f80000
f80000
f8f000
fffc00
ff3e00
fe3e00
1e3e00
3e3e00
3e3e00
3e3e00
3c3e00
3c3e00
3c3ff0
3e3ff8
3e3e78
3e3e78
3e3e78
3e1ff0
181840
ENDCHAR
STARTCHAR k
ENCODING  31600
SWIDTH 360 0
DWIDTH 18 0
BBX 15 20 1 0
BITMAP
f800
f800
f800
f800
fbf8
fffc
fe3e
3c3e
3c3e
7e3e
7e3e
3c3e
3c3e
783e
783e
f83e
f83c
f87c
f87e
f83e
ENDCHAR
STARTCHAR ko
ENCODING  31601
SWIDTH 360 0
DWIDTH 19 0
BBX 16 20 0 -1
BITMAP
f800
f800
f800
f8f8
fffc
ff1e
ff1e
1e1e
1e1e
1e1e
3e1e
3e1e
3e1f
3e1f
3e00
3e00
3e00
3e00
1f00
1800
ENDCHAR
STARTCHAR kWe
ENCODING  31603
SWIDTH 520 0
DWIDTH 28 0
BBX 25 20 1 0
BITMAP
f8000000
f8000000
f8000000
f8000000
fff00000
fff80000
fc7c0000
3c7c0000
3c7c0000
787fff00
787fef80
f87def80
f87def80
f87def00
f87cfe00
f87c0000
f87c0000
f87c0000
7c7c0000
787c0000
ENDCHAR
STARTCHAR kWi
ENCODING  31605
SWIDTH 580 0
DWIDTH 29 0
BBX 26 20 1 0
BITMAP
f8000000
f8000000
f8000000
f8000000
fff00000
fff83000
fc7df800
3c7cf800
3c7cf000
787ff000
787ff000
f87df780
f87cffc0
f87c07c0
f87c03c0
f87c01c0
f87c0000
f87c0000
7c7c0000
787c0000
ENDCHAR
STARTCHAR kWa
ENCODING  31606
SWIDTH 420 0
DWIDTH 22 0
BBX 19 23 1 -3
BITMAP
f80000
f80000
f80000
f80000
fbf000
fff800
fc7c00
3c7c00
787c00
787c00
f87c00
f87c00
f87c00
787c00
007c00
07ffc0
0f83e0
0f83e0
0f03e0
0e03e0
0003e0
0003e0
0001e0
ENDCHAR
STARTCHAR kWE
ENCODING  31607
SWIDTH 440 0
DWIDTH 23 0
BBX 20 23 1 -3
BITMAP
f80000
f80000
f80000
f00000
f3e000
fff800
fc7800
3c7c00
787c00
787c00
787c00
f87c00
f87c80
f87fe0
7879f0
0078f0
0078f0
007fe0
0fffc0
0f8000
0f0000
0f0000
1e0000
ENDCHAR
STARTCHAR kWu/kW
ENCODING  31608
SWIDTH 540 0
DWIDTH 28 0
BBX 25 20 1 0
BITMAP
f8000000
f8000000
f8000000
f8000000
fff00000
fff87000
fc7df000
3c7cf000
3c7cf000
787cf000
787fff00
f87e1f00
f87c0f00
f87c0f00
f87c0780
f87c0000
f87c0000
f87c0000
fc7c0000
787c0000
ENDCHAR
STARTCHAR Ke
ENCODING  31611
SWIDTH 460 0
DWIDTH 24 0
BBX 21 22 1 0
BITMAP
000f00
f01f00
ffff00
7fdf00
f3cf00
e3c000
03cfe0
03fff0
03f8f8
0078f8
00f0f8
00f0f8
00f0f8
01f0f8
01f0f8
01f0f8
01f0f0
01f1f0
01f1f0
01f1f0
00f8f8
00f0f8
ENDCHAR
STARTCHAR Ku
ENCODING  31612
SWIDTH 580 0
DWIDTH 31 0
BBX 28 22 1 0
BITMAP
000f0000
f01f0000
7fff0000
7fdf0000
fbcf0000
e3c00000
03cfe000
03fff000
03f8f000
0078f800
00f0f9e0
00f0fbe0
01f0ffe0
01f0fff0
01f0f9f0
01f0f800
01f0f800
01f0f800
01f0f000
01f0f000
00f8f800
00f0f000
ENDCHAR
STARTCHAR Ki
ENCODING  31613
SWIDTH 580 0
DWIDTH 31 0
BBX 28 24 1 -2
BITMAP
000f0000
f01f0000
7fff0000
7fdf0000
fbcf0000
e3c00000
03cfc000
03fff000
03f8f000
0078f800
00f0f800
00f0f800
00f0f800
01f0f800
01f0f800
01f0f000
01f0f000
01f1f000
01f1f0e0
01f1f1e0
00f8ffe0
00f0ffe0
000001f0
000000c0
ENDCHAR
STARTCHAR Ka
ENCODING  31614
SWIDTH 460 0
DWIDTH 24 0
BBX 21 22 1 0
BITMAP
000f00
f01f00
7fff00
7fdf00
fbcf00
e3c000
03cfe0
03fff0
03f8f0
0078f8
00f0f8
00f0f8
01f0f8
01f0f8
01f0f8
01f0f8
01f0f8
00f0f0
0000f0
0000f0
0000f8
0000f8
ENDCHAR
STARTCHAR KE
ENCODING  31777
SWIDTH 560 0
DWIDTH 30 0
BBX 27 22 0 0
BITMAP
000f0000
f81f0000
7bff0000
7fff0000
7bcf0000
e3c00000
03cfe000
03fff000
03f8f800
0078f800
00f8f800
00f0f800
00f0f800
00f0f800
00f0f800
00f0f900
00f0ffc0
00f0fbe0
00f0f9e0
00f0f9e0
00f8ffc0
00f8ff80
ENDCHAR
STARTCHAR K
ENCODING  31778
SWIDTH 440 0
DWIDTH 23 0
BBX 20 22 1 0
BITMAP
000f00
f01f00
ffff00
ffdf00
f3cf00
e3c000
03dfc0
03ffe0
03f0f0
00f0f0
01e0f0
03f0f0
03f1f0
00f1f0
01e1f0
01e1f0
03e1f0
03c1f0
03c1f0
07c1f0
07c1f0
03c1f0
ENDCHAR
STARTCHAR Ko
ENCODING  31779
SWIDTH 460 0
DWIDTH 24 0
BBX 21 22 1 0
BITMAP
000f00
f01f00
ffff00
7fdf00
f3cf00
e3c000
03cfe0
03fff0
07f8f8
0078f8
00f8f8
00f0f8
00f0f0
00f0f0
00f0f8
00f0f8
00f070
00f000
00f000
00f000
00f800
00f800
ENDCHAR
STARTCHAR KWe
ENCODING  31781
SWIDTH 520 0
DWIDTH 28 0
BBX 25 20 1 0
BITMAP
f8000000
f8000000
f8000000
f8000000
fff00000
fff80000
fc7c0000
3c7c0000
3c7c0000
787fff00
787fef80
f87def80
f87def80
f87def00
f87cfe00
f87c0000
f87c0000
f87c0000
7c7c0000
787c0000
ENDCHAR
STARTCHAR KWi
ENCODING  31783
SWIDTH 580 0
DWIDTH 29 0
BBX 26 20 1 0
BITMAP
f8000000
f8000000
f8000000
f8000000
fff00000
fff83000
fc7df800
3c7cf800
3c7cf000
787ff000
787ff000
f87df780
f87cffc0
f87c07c0
f87c03c0
f87c01c0
f87c0000
f87c0000
7c7c0000
787c0000
ENDCHAR
STARTCHAR KWa
ENCODING  31784
SWIDTH 420 0
DWIDTH 22 0
BBX 19 23 1 -3
BITMAP
f80000
f80000
f80000
f80000
fbf000
fff800
fc7c00
3c7c00
787c00
787c00
f87c00
f87c00
f87c00
787c00
007c00
07ffc0
0f83e0
0f83e0
0f03e0
0e03e0
0003e0
0003e0
0001e0
ENDCHAR
STARTCHAR KWE
ENCODING  31785
SWIDTH 440 0
DWIDTH 23 0
BBX 20 23 1 -3
BITMAP
f80000
f80000
f80000
f00000
f3e000
fff800
fc7800
3c7c00
787c00
787c00
787c00
f87c00
f87c80
f87fe0
7879f0
0078f0
0078f0
007fe0
0fffc0
0f8000
0f0000
0f0000
1e0000
ENDCHAR
STARTCHAR KWu/KW
ENCODING  31786
SWIDTH 540 0
DWIDTH 28 0
BBX 25 20 1 0
BITMAP
f8000000
f8000000
f8000000
f8000000
fff00000
fff87000
fc7df000
3c7cf000
3c7cf000
787cf000
787fff00
f87e1f00
f87c0f00
f87c0f00
f87c0780
f87c0000
f87c0000
f87c0000
fc7c0000
787c0000
ENDCHAR
STARTCHAR we
ENCODING  31789
SWIDTH 400 0
DWIDTH 21 0
BBX 18 13 1 2
BITMAP
07ff00
1df780
39f7c0
79e3c0
79e3c0
f1e3c0
f1e7c0
f1e780
f1e780
f1e780
f3ef00
73fc00
3e0000
ENDCHAR
STARTCHAR wu
ENCODING  31790
SWIDTH 520 0
DWIDTH 27 0
BBX 24 14 1 1
BITMAP
01ff00
0fff80
3cf7c0
79f3c0
79f3c0
f9e3c0
f9e3c0
f1e3c0
f1e780
f1e79e
f1e7be
f3effe
7ffffe
3c001f
ENDCHAR
STARTCHAR wi
ENCODING  31791
SWIDTH 380 0
DWIDTH 20 0
BBX 17 19 1 -2
BITMAP
0ffe00
3fcf00
7bcf00
f3cf00
f3cf00
f3cf00
f3cf00
f3de00
fff800
7fc000
07c000
07c000
07c000
07c000
07cf00
07cf00
07ff00
000f00
000780
ENDCHAR
STARTCHAR wa
ENCODING  31792
SWIDTH 360 0
DWIDTH 19 0
BBX 16 18 1 -1
BITMAP
03fe
1fff
3bef
7bef
f3cf
f3cf
f3cf
f3ce
fffc
7fe0
33c0
07c0
07c0
07c0
07c0
07c0
07c0
07c0
ENDCHAR
STARTCHAR wE
ENCODING  31793
SWIDTH 360 0
DWIDTH 19 0
BBX 16 18 1 -1
BITMAP
03fe
1fff
3bef
73cf
f3cf
f3cf
f3cf
f3ce
fffc
7fe0
33c0
07c8
07fe
07ce
07cf
07ce
07fe
07fc
ENDCHAR
STARTCHAR w
ENCODING  31794
SWIDTH 540 0
DWIDTH 28 0
BBX 25 14 1 1
BITMAP
01ff0000
0fff8000
3df7c000
79e7cf00
79e7df00
f9e7ff00
f1e7ff00
f1e7cf80
f1e78000
f1e78000
f3e70000
f3fe0000
7ff00000
3c000000
ENDCHAR
STARTCHAR wo
ENCODING  31795
SWIDTH 400 0
DWIDTH 21 0
BBX 18 18 1 0
BITMAP
03ff80
0ef3c0
1cf3c0
3cf3c0
7cf3c0
7cf3c0
7cf3c0
7cf780
3fff00
1ff800
07c000
0f0000
1e0000
3c0000
780000
f80000
f80000
f80000
ENDCHAR
STARTCHAR `e/e2
ENCODING  31797
SWIDTH 300 0
DWIDTH 17 0
BBX 14 17 0 0
BITMAP
07f0
0ff8
3c3c
3c3c
787c
787c
7878
f878
f878
f878
f078
f0f0
f0f0
f0f0
ffe0
ffc0
6000
ENDCHAR
STARTCHAR `u/u2
ENCODING  31798
SWIDTH 440 0
DWIDTH 23 0
BBX 20 17 0 0
BITMAP
01f800
0ff800
1c3c00
3c3c00
7c7c00
787c60
787fe0
787fe0
f879f0
f878f0
f0f800
f0f800
f0f000
f0f000
f1f000
ffe000
780000
ENDCHAR
STARTCHAR `i/i2
ENCODING  31799
SWIDTH 400 0
DWIDTH 21 0
BBX 18 20 1 -2
BITMAP
1f8000
79c000
f1e000
f3e000
f3e000
f3c000
f3c000
f3d800
7ffc00
3c7800
007800
00f800
00f000
00f000
01e000
01e380
03e780
03ff80
01c780
0007c0
ENDCHAR
STARTCHAR `a/A2
ENCODING  31800
SWIDTH 320 0
DWIDTH 17 0
BBX 14 19 1 -1
BITMAP
1f80
3bc0
71e0
f1e0
f3e0
f3c0
f3c0
f3c8
7ffc
3c7c
0078
00f8
00f0
01f0
01f0
01e0
03e0
03e0
01c0
ENDCHAR
STARTCHAR `E/E2
ENCODING  31801
SWIDTH 380 0
DWIDTH 20 0
BBX 17 19 1 0
BITMAP
0f8000
3fc000
71e000
f1e000
f1e000
f1e000
f3c000
f3c000
f3fc00
7f7c00
007800
007800
00f800
00ff00
01f780
01f380
01e380
03ff80
03fe00
ENDCHAR
STARTCHAR `I/I2
ENCODING  31802
SWIDTH 300 0
DWIDTH 16 0
BBX 13 19 1 0
BITMAP
0780
07c0
07c0
0780
07c0
0ff0
1cf8
3878
7878
f878
f0f8
f0f8
f0f8
f0f8
f0f0
f0f0
f1e0
ffc0
7e00
ENDCHAR
STARTCHAR `o/o2
ENCODING  31803
SWIDTH 320 0
DWIDTH 17 0
BBX 14 19 1 -1
BITMAP
03fc
073c
0e3c
1e3c
1e3c
1e3c
1e78
1e70
1fe0
0f00
1e00
1c00
3c00
7800
7800
f800
f800
f800
f000
ENDCHAR
STARTCHAR ze
ENCODING  31805
SWIDTH 300 0
DWIDTH 16 0
BBX 13 18 1 -1
BITMAP
30f8
f8f8
f8f8
f8f8
f8f8
f8f8
fff8
fff0
f8f0
f8f0
f8f0
f9f0
f9f0
f1f0
f1f0
f1f0
f9f0
c080
ENDCHAR
STARTCHAR zu
ENCODING  31806
SWIDTH 440 0
DWIDTH 22 0
BBX 19 18 1 -1
BITMAP
30f800
f8f800
f8f800
f8f800
f8f800
f8f9c0
fff3c0
fff3c0
f8ffe0
f8fbe0
f8f080
f9f000
f9f000
f1f000
f1f000
f1f000
f9f000
c08000
ENDCHAR
STARTCHAR zi
ENCODING  31807
SWIDTH 420 0
DWIDTH 22 0
BBX 19 19 1 -2
BITMAP
30f800
f8f800
f8f800
f8f800
f8f800
f8f800
fff000
fff000
f8f000
f8f000
f8f000
f9f000
f9f000
f1f000
f1f3c0
f1f3c0
f9ffc0
c003e0
0001e0
ENDCHAR
STARTCHAR za
ENCODING  31808
SWIDTH 300 0
DWIDTH 16 0
BBX 13 17 0 0
BITMAP
78f8
f8f8
f8f8
78f8
f8f8
f8f8
fff0
fef0
f8f0
f8f0
f9f0
f9f0
71f0
01f0
01f0
01f0
01f0
ENDCHAR
STARTCHAR zE
ENCODING  31809
SWIDTH 400 0
DWIDTH 21 0
BBX 18 18 1 -1
BITMAP
30f800
f8f800
f8f800
f8f800
f8f800
f8f800
fff800
fff000
f8f000
f8f000
f8f000
f9ff80
f9ffc0
f1f3c0
f1f3c0
f1f3c0
f9ff80
c00000
ENDCHAR
STARTCHAR z
ENCODING  31810
SWIDTH 420 0
DWIDTH 22 0
BBX 19 18 1 -1
BITMAP
0003e0
1fe3e0
ffe3e0
79e3e0
71e3e0
f1e3e0
41ffe0
03ffe0
03e3e0
03e3e0
03e3e0
03e3c0
03e3c0
03e3c0
03e3c0
03e3c0
03e3c0
018200
ENDCHAR
STARTCHAR zo
ENCODING  31811
SWIDTH 300 0
DWIDTH 16 0
BBX 13 18 1 -1
BITMAP
30f8
f8f8
f8f8
f8f8
f8f8
f8f8
fff8
fff0
f8f0
f8f0
f8f0
f9f8
f8e0
f000
f000
f000
f800
c000
ENDCHAR
STARTCHAR zWa
ENCODING  31812
SWIDTH 380 0
DWIDTH 21 0
BBX 18 20 0 -3
BITMAP
10f800
f8f800
f8f800
f8f800
f8f800
f8f800
fff000
fef000
f8f000
f8f000
f9f000
f9f000
71f000
01f000
01f000
01f780
3fff80
3e0780
3c0780
3803c0
ENDCHAR
STARTCHAR Ze
ENCODING  31813
SWIDTH 500 0
DWIDTH 28 0
BBX 25 18 0 -1
BITMAP
0f00ff00
ffc3df00
fbc78f00
f3c78f80
e3c78000
c3c78000
03ff8000
03ff8000
03cf8000
07cf8000
07cf0000
07cf0000
078f0000
078f0000
078f0000
078f0000
07cf8000
060c0000
ENDCHAR
STARTCHAR Zu
ENCODING  31814
SWIDTH 520 0
DWIDTH 28 0
BBX 25 18 0 -1
BITMAP
0f80ff00
7fc3df00
79c38f00
73e78780
f3e78000
43e78000
03ffbe00
03fffe00
03cfbe00
03cf9e00
03cf8e00
07cf8000
07cf8000
07cf0000
07cf0000
07cf8000
07cf8000
060c0000
ENDCHAR
STARTCHAR Zi
ENCODING  31815
SWIDTH 520 0
DWIDTH 28 0
BBX 25 19 1 -2
BITMAP
0f80ff00
ffc3df00
fbc79f00
f3e78f80
e3e78000
c3cf8000
03ff8000
03ef8000
03cf8000
03cf0000
07cf0000
07cf0000
078f0000
078f0e00
078f1e00
07cffe00
078ffe00
00001e00
00000c00
ENDCHAR
STARTCHAR Za
ENCODING  31816
SWIDTH 520 0
DWIDTH 27 0
BBX 24 18 0 0
BITMAP
03007f
7f83ff
fbc39f
f3c78f
f3e787
e3e780
03df80
03ff80
03cf80
03cf80
07cf00
07cf00
07cf00
000f00
000f00
000f00
000f00
000f00
ENDCHAR
STARTCHAR ZE
ENCODING  31817
SWIDTH 520 0
DWIDTH 27 0
BBX 24 18 1 -1
BITMAP
0700ff
7f83ff
fbc79f
f3c78f
f3e782
c3e780
03df80
03ff80
03cf00
03cf00
07cf00
07cff8
07cffc
078f1c
078f1c
078f7c
07cff8
020c20
ENDCHAR
STARTCHAR Z
ENCODING  31818
SWIDTH 520 0
DWIDTH 28 0
BBX 25 25 0 -1
BITMAP
e01c0000
f03c0000
f83c0000
fffc0000
fffc0000
07800000
07800000
0f80ff00
ffc1ef00
f9e3cf00
f1e3c780
e1e7c000
c1e78000
03ff8000
03ff8000
03e78000
03c78000
03c78000
03c78000
03c78000
03cf8000
07cf8000
07cf8000
07cf8000
03060000
ENDCHAR
STARTCHAR Zo
ENCODING  31819
SWIDTH 520 0
DWIDTH 28 0
BBX 25 18 1 -1
BITMAP
0f00ff00
ffc3df00
fbc38f00
f3c78780
e3e78000
c3e78000
03ff8000
03ff8000
03cf8000
03cf8000
07cf8000
07cf8000
07c00000
07800000
07800000
07800000
07c00000
02000000
ENDCHAR
STARTCHAR ZWa
ENCODING  31820
SWIDTH 520 0
DWIDTH 28 0
BBX 25 21 0 -3
BITMAP
0700ff80
7fc1ff00
fbc3cf80
f3e3c780
f3e7c100
e3e7c000
03ffc000
03ffc000
03c7c000
03c78000
07c78000
07c78000
07c78000
00078000
00078000
00078000
00fffc00
01fffe00
00f03e00
01e01e00
01c00c00
ENDCHAR
STARTCHAR ye
ENCODING  31821
SWIDTH 280 0
DWIDTH 15 0
BBX 12 19 1 0
BITMAP
0fe0
3cf0
78f0
78f0
f8f0
f0f0
f1e0
f3c0
ff00
f800
7c00
7e00
3e00
3c00
3c00
3c00
3c00
3e00
3c00
ENDCHAR
STARTCHAR yu
ENCODING  31822
SWIDTH 300 0
DWIDTH 16 0
BBX 13 19 1 -1
BITMAP
0fe0
3cf0
78f0
f8f0
f0f0
f1f0
f1e0
f7c0
fe00
fc00
7cf0
3ff0
3cf0
3cf0
3c78
3c00
3e00
3e00
1000
ENDCHAR
STARTCHAR yi
ENCODING  31823
SWIDTH 440 0
DWIDTH 23 0
BBX 20 19 1 0
BITMAP
0fe000
3cf000
78f000
f8f000
f0f000
f1f000
f1e000
f3c000
ff0000
f87c00
7c7c00
7c7800
3ff800
3ffbe0
3c7fe0
3c01e0
3c01f0
3e0070
3c0000
ENDCHAR
STARTCHAR ya
ENCODING  31824
SWIDTH 340 0
DWIDTH 19 0
BBX 16 21 1 -2
BITMAP
00fe
039e
071f
0f1e
0f1e
0f1e
1f3c
1ff8
0fc0
0f00
0f00
0f80
0780
07c0
03c0
73c0
ff00
7800
7800
7000
e000
ENDCHAR
STARTCHAR yE
ENCODING  31825
SWIDTH 400 0
DWIDTH 21 0
BBX 18 19 1 0
BITMAP
0fe000
3cf000
78f000
f8f000
f0f000
f1f000
f1e000
f3c000
ff0000
f81f00
7fff80
7ff3c0
3cf3c0
3cf3c0
3c7bc0
3c7f80
3c2000
3e0000
3c0000
ENDCHAR
STARTCHAR y
ENCODING  31826
SWIDTH 400 0
DWIDTH 21 0
BBX 18 20 0 -3
BITMAP
00fe00
038f00
078f00
0f0f00
0f0f00
0f1f00
1f1e00
1ff800
0fe000
0f03c0
0f87c0
0f83c0
0f83c0
07c780
0fff00
7c7c00
780000
780000
f00000
e00000
ENDCHAR
STARTCHAR yo
ENCODING  31827
SWIDTH 400 0
DWIDTH 21 0
BBX 18 19 1 0
BITMAP
07c000
1fe000
78e000
78f000
f0f780
f0ff80
f1e780
f3c7c0
ff03c0
f80000
7c0000
7c0000
3e0000
3c0000
3c0000
3c0000
3c0000
3e0000
3c0000
ENDCHAR
STARTCHAR yWa
ENCODING  31828
SWIDTH 280 0
DWIDTH 15 0
BBX 12 19 1 0
BITMAP
0fe0
3cf0
78f0
78f0
f8f0
f0f0
f1e0
f3c0
ff00
f800
7c00
7e00
3e00
3c00
3c00
3c00
3c00
3e00
3c00
ENDCHAR
STARTCHAR de
ENCODING  31829
SWIDTH 400 0
DWIDTH 20 0
BBX 17 19 1 -1
BITMAP
00fc00
03fe00
073e00
0f3e00
0f3e00
1f3e00
1f3c00
1f7800
0fe000
0f0000
0f8000
078000
07c000
0fff00
7c1f00
7c0f00
780f80
f00300
600000
ENDCHAR
STARTCHAR du
ENCODING  31830
SWIDTH 520 0
DWIDTH 27 0
BBX 24 20 1 -1
BITMAP
003f00
00e780
01c780
03c780
03c780
03cf80
07cf00
03fe00
03f000
03c000
03e180
1fffc0
7d07fe
7807fe
78079e
f00f9f
600f07
000f00
000f80
000f00
ENDCHAR
STARTCHAR di
ENCODING  31831
SWIDTH 520 0
DWIDTH 27 0
BBX 24 21 1 -2
BITMAP
003f00
00ff80
01e780
03c780
03c780
03cf80
07cf00
03de00
03f800
03e000
03e000
1fffc0
7d07c0
7807c0
780780
f00780
600f0e
000f1e
000ffe
000f3e
00001f
ENDCHAR
STARTCHAR da
ENCODING  31832
SWIDTH 400 0
DWIDTH 21 0
BBX 18 20 1 -1
BITMAP
003f00
00e780
01c780
03c780
03c780
03cf80
07cf00
03fe00
03f800
03e000
07ef80
7dffc0
7c07c0
7807c0
780780
e00780
000780
000f80
000fc0
000400
ENDCHAR
STARTCHAR dE
ENCODING  31833
SWIDTH 480 0
DWIDTH 25 0
BBX 22 19 1 -1
BITMAP
00fc00
03fc00
073e00
0f3e00
1e3e00
1e3c00
1e3c00
1ff800
1fe000
0f0000
0f8000
078000
07e3f0
7fff3c
7c0f3c
780f3c
f80f3c
f00f3c
0007f0
ENDCHAR
STARTCHAR d
ENCODING  31834
SWIDTH 460 0
DWIDTH 25 0
BBX 22 19 1 0
BITMAP
00f800
03fc00
073e00
0f3ff0
1f3ff8
1f3ef8
1f3c78
1f783c
1fe000
0f0000
0f0000
078000
07c000
0fff00
7c1f00
7c1f00
780f80
f00700
600000
ENDCHAR
STARTCHAR do
ENCODING  31835
SWIDTH 380 0
DWIDTH 21 0
BBX 18 20 1 -1
BITMAP
01f800
073c00
0f3c00
1e3c00
1e3c00
1e7c00
3e7800
1ff000
1fc000
0f0000
1fff00
3e1f80
780f80
700780
f003c0
f00000
f00000
f00000
f80000
f00000
ENDCHAR
STARTCHAR dWa
ENCODING  31836
SWIDTH 520 0
DWIDTH 28 0
BBX 25 23 0 -5
BITMAP
00fc0000
03fe0000
073e0000
0f3e0000
0f3e0000
1f3c0000
1f3c0000
1f780000
0fe00000
0f000000
0f800000
07800000
07c00000
0fff8000
7c1f8000
7c0f8000
780f8000
f0078f00
603fff00
007f8f00
003c0f00
00780780
00700000
ENDCHAR
STARTCHAR De
ENCODING  31837
SWIDTH 400 0
DWIDTH 20 0
BBX 17 22 1 -1
BITMAP
01f000
01f000
01f000
01fc00
03fe00
073e00
0f3e00
0f3e00
1f3c00
1f3c00
1f7800
0fe000
0f0000
0f8000
078000
07c000
0fff00
7c1f00
7c0f00
780f80
f00300
600000
ENDCHAR
STARTCHAR Du
ENCODING  31838
SWIDTH 520 0
DWIDTH 27 0
BBX 24 24 1 -1
BITMAP
007c00
007c00
007c00
007f00
00ff80
01e780
03c780
03c780
03cf80
07cf00
07de00
03fc00
03c000
03c000
07ff80
7dffce
7c07fe
7807fe
78079f
e00f8f
000f00
000f00
000f80
000000
ENDCHAR
STARTCHAR Di
ENCODING  31839
SWIDTH 520 0
DWIDTH 27 0
BBX 24 25 1 -2
BITMAP
007c00
007c00
007c00
007c00
007f00
01e780
01c780
03c780
03cf80
07cf80
07cf00
03fc00
03f000
03e000
07ff80
7dffc0
7c07c0
780780
780780
e00f80
000f1e
000f3e
000ffe
00003e
00001f
ENDCHAR
STARTCHAR Da
ENCODING  31840
SWIDTH 400 0
DWIDTH 21 0
BBX 18 24 1 -1
BITMAP
007c00
007c00
007c00
007c00
007f00
01e780
03c780
03c780
03c780
07cf80
07cf00
03fe00
03f800
03e000
07ef80
7dffc0
7c07c0
7807c0
780780
e00780
000780
000f80
000fc0
000400
ENDCHAR
STARTCHAR DE
ENCODING  31841
SWIDTH 480 0
DWIDTH 25 0
BBX 22 23 1 -1
BITMAP
01e000
01f000
01e000
01e000
01fc00
07fe00
0f3e00
0f3e00
1e3e00
1e3c00
1e3c00
1ff800
1fe000
0f0000
0f8000
078000
07e3f0
7fff3c
7c0f3c
780f3c
f80f3c
f00f3c
0007f0
ENDCHAR
STARTCHAR D
ENCODING  31842
SWIDTH 460 0
DWIDTH 25 0
BBX 22 23 1 0
BITMAP
01f000
01f000
01f000
01f000
01fc00
07fe00
0f3e00
0f3ff0
1f3ff8
1f3ef8
1f3c78
1f783c
1fe000
0f0000
0f0000
078000
07c000
0fff00
7c1f00
7c1f00
780f80
f00700
600000
ENDCHAR
STARTCHAR Do
ENCODING  31843
SWIDTH 380 0
DWIDTH 21 0
BBX 18 24 1 0
BITMAP
01e000
03e000
01e000
01e000
01f800
07fc00
0f3c00
1e3c00
1e3c00
1e3c00
3e7800
1ef800
1fe000
0f0000
0fc000
3fff80
780f80
780f80
f007c0
f00000
f00000
f00000
f00000
f00000
ENDCHAR
STARTCHAR DWa
ENCODING  31844
SWIDTH 400 0
DWIDTH 20 0
BBX 17 22 1 -1
BITMAP
01f000
01f000
01f000
01fc00
03fe00
073e00
0f3e00
0f3e00
1f3c00
1f3c00
1f7800
0fe000
0f0000
0f8000
078000
07c000
0fff00
7c1f00
7c0f00
780f80
f00300
600000
ENDCHAR
STARTCHAR je
ENCODING  31845
SWIDTH 420 0
DWIDTH 22 0
BBX 19 24 1 -4
BITMAP
0001c0
3c03c0
3c3fc0
3fffe0
3cf3e0
39fc00
039e00
079e00
079e00
0f1e00
0f1e00
0fbc00
0ff800
0f8000
0f8000
0f8000
078000
07c000
0fff00
7cff80
7c0f80
780780
f80380
f00000
ENDCHAR
STARTCHAR ju
ENCODING  31846
SWIDTH 480 0
DWIDTH 25 0
BBX 22 24 1 -4
BITMAP
000780
780f80
7cff80
7ff780
79e3c0
f3f800
073c00
0f3c00
0f3c00
1f3c00
1f3c00
0ff800
0ff000
0f0000
0f8e00
1fff08
7bfff8
f81ff8
f01e78
f03e3c
e03e18
003e00
003e00
003000
ENDCHAR
STARTCHAR ji
ENCODING  31847
SWIDTH 480 0
DWIDTH 25 0
BBX 22 25 1 -5
BITMAP
000380
780780
787f80
7fff80
79e780
7bf800
073c00
0f3c00
0f3c00
1e3c00
1e3c00
0f7800
0ff000
0f0000
0f8000
1ffe00
7bff00
f81e00
f01e00
f03e00
e03c78
003cf8
003ff8
0030f8
00007c
ENDCHAR
STARTCHAR ja
ENCODING  31848
SWIDTH 420 0
DWIDTH 21 0
BBX 18 24 1 -4
BITMAP
000780
780f80
7cff80
7ff780
79e3c0
f3f800
073c00
0f3c00
0f3c00
1f3c00
1f3c00
0f7800
0ff000
0f0000
0f8400
1fff00
7bff00
f81e00
f81e00
f01e00
e03e00
003e00
003e00
001800
ENDCHAR
STARTCHAR jE
ENCODING  31849
SWIDTH 460 0
DWIDTH 24 0
BBX 21 24 1 -5
BITMAP
0003c0
7807c0
3dffc0
3ff7c0
7df3c0
73fc00
079c00
071e00
0f3e00
0f3e00
0f3c00
0f7c00
0ff000
0f0000
0f8000
0f8000
078000
07c7f0
3bfe78
f81e78
781e78
f81e78
f00e70
400fe0
ENDCHAR
STARTCHAR j
ENCODING  31850
SWIDTH 460 0
DWIDTH 25 0
BBX 22 24 0 -5
BITMAP
0003c0
3c07c0
3c7fc0
3ffbc0
3cf1e0
79fc00
039e00
079ef8
079ff8
0f1e78
0f1e3c
0fbc1c
0ff000
0f8000
0f8000
078000
07c000
07c000
1dff80
7c0f80
7c0f80
780780
f00000
000000
ENDCHAR
STARTCHAR jo
ENCODING  31851
SWIDTH 400 0
DWIDTH 21 0
BBX 18 25 1 -4
BITMAP
000780
f00f80
787f80
7fff80
7be7c0
f3f800
073c00
0e3c00
1e3c00
1e3c00
1e3c00
1e7800
1ee000
0f8000
0f8000
1fff80
3c0f80
780780
f807c0
f00100
f00000
f00000
f80000
f80000
000000
ENDCHAR
STARTCHAR jWa
ENCODING  31852
SWIDTH 420 0
DWIDTH 22 0
BBX 19 24 1 -4
BITMAP
0001c0
3c03c0
3c3fc0
3fffe0
3cf3e0
39fc00
039e00
079e00
079e00
0f1e00
0f1e00
0fbc00
0ff800
0f8000
0f8000
0f8000
078000
07c000
0fff00
7cff80
7c0f80
780780
f80380
f00000
ENDCHAR
STARTCHAR ge
ENCODING  31853
SWIDTH 280 0
DWIDTH 15 0
BBX 12 17 1 -1
BITMAP
1fc0
ffe0
79f0
71e0
e1e0
41e0
03e0
03e0
03e0
03c0
03c0
07c0
07c0
07c0
07c0
07c0
0300
ENDCHAR
STARTCHAR gu
ENCODING  31854
SWIDTH 400 0
DWIDTH 21 0
BBX 18 17 1 -1
BITMAP
1fc000
ffe000
f1e000
f1e000
e3e000
c3e000
03ff80
03ff80
03cf80
07c7c0
07c100
07c000
078000
078000
0f8000
07c000
060000
ENDCHAR
STARTCHAR gi
ENCODING  31855
SWIDTH 380 0
DWIDTH 20 0
BBX 17 18 1 -2
BITMAP
3fe000
fbe000
f9f000
f1e000
e1e000
03e000
03e000
03e000
03c000
03c000
07c000
07c000
07c000
07cf00
07cf00
07ff00
020f00
000f80
ENDCHAR
STARTCHAR ga
ENCODING  31856
SWIDTH 360 0
DWIDTH 19 0
BBX 16 18 1 -2
BITMAP
03fc
0fbe
0f1f
0f1f
0e1f
001f
001f
001e
001e
003c
0038
00f0
03e0
7f00
7800
7800
f000
4000
ENDCHAR
STARTCHAR gE
ENCODING  31857
SWIDTH 360 0
DWIDTH 19 0
BBX 16 17 1 -1
BITMAP
1fc0
ffe0
79f0
71e0
e1e0
41e0
03e0
03e0
03c0
03c0
03fc
07ff
07cf
07cf
078f
07fc
0200
ENDCHAR
STARTCHAR g
ENCODING  31858
SWIDTH 340 0
DWIDTH 18 0
BBX 15 17 0 -1
BITMAP
0ffc
3f9e
739e
f39e
f39e
f79e
7e3e
003e
003e
003c
003c
007c
007c
007c
007c
007c
0030
ENDCHAR
STARTCHAR go
ENCODING  31859
SWIDTH 300 0
DWIDTH 16 0
BBX 13 21 0 -1
BITMAP
0780
0f80
0780
0780
07f0
7ff8
f8f8
7878
f0f8
e0f8
00f8
00f0
00f0
01f0
01f0
01f0
01e0
01e0
03e0
01f0
0180
ENDCHAR
STARTCHAR gWe
ENCODING  31861
SWIDTH 460 0
DWIDTH 24 0
BBX 21 17 1 -1
BITMAP
1fe000
ffe000
79f000
71f000
e1e000
41e000
03fff8
03ff78
03ef78
03cf78
03cff8
07c7c0
07c000
07c000
07c000
07c000
070000
ENDCHAR
STARTCHAR gWi
ENCODING  31863
SWIDTH 500 0
DWIDTH 27 0
BBX 24 17 0 -1
BITMAP
1fe000
ffe000
79f380
71efc0
f1e780
41e780
01ff80
03ff80
03effc
03c7fe
03c03e
03c01f
07c006
07c000
07c000
07c000
030000
ENDCHAR
STARTCHAR gWa
ENCODING  31864
SWIDTH 320 0
DWIDTH 17 0
BBX 14 18 0 0
BITMAP
3fe0
3cf0
3cf0
38f0
70f0
00f0
01e0
1ffc
7c3c
783c
787c
f07c
00f8
00f8
00f0
01f0
01f0
01f0
ENDCHAR
STARTCHAR gWE
ENCODING  31865
SWIDTH 400 0
DWIDTH 21 0
BBX 18 20 1 -1
BITMAP
01f000
1ffc00
1e3c00
1e3c00
1c7c00
187c00
007800
007800
00f800
00ff80
00f3c0
00f1c0
01f1c0
01ffc0
07ff80
7f8000
f80000
f80000
f00000
e00000
ENDCHAR
STARTCHAR gWu/gW
ENCODING  31866
SWIDTH 480 0
DWIDTH 25 0
BBX 22 17 0 -1
BITMAP
3fe000
79f080
79f7c0
71f7c0
e1f7c0
01f780
01ff80
03ff7c
03e07c
03e03c
03c01c
03c000
07c000
07c000
07c000
07c000
030000
ENDCHAR
STARTCHAR Ge
ENCODING  31869
SWIDTH 280 0
DWIDTH 15 0
BBX 12 17 1 -1
BITMAP
1fc0
ffe0
79f0
71e0
e1e0
41e0
03e0
03e0
03e0
03c0
03c0
07c0
07c0
07c0
07c0
07c0
0300
ENDCHAR
STARTCHAR Gu
ENCODING  31870
SWIDTH 400 0
DWIDTH 21 0
BBX 18 17 1 -1
BITMAP
1fc000
ffe000
f1e000
f1e000
e3e000
c3e000
03ff80
03ff80
03cf80
07c7c0
07c100
07c000
078000
078000
0f8000
07c000
060000
ENDCHAR
STARTCHAR Gi
ENCODING  32033
SWIDTH 380 0
DWIDTH 20 0
BBX 17 18 1 -2
BITMAP
3fe000
fbe000
f9f000
f1e000
e1e000
03e000
03e000
03e000
03c000
03c000
07c000
07c000
07c000
07cf00
07cf00
07ff00
020f00
000f80
ENDCHAR
STARTCHAR Ga
ENCODING  32034
SWIDTH 360 0
DWIDTH 19 0
BBX 16 18 1 -2
BITMAP
03fc
0fbe
0f1f
0f1f
0e1f
001f
001f
001e
001e
003c
0038
00f0
03e0
7f00
7800
7800
f000
4000
ENDCHAR
STARTCHAR GE
ENCODING  32035
SWIDTH 360 0
DWIDTH 19 0
BBX 16 17 1 -1
BITMAP
1fc0
ffe0
79f0
71e0
e1e0
41e0
03e0
03e0
03c0
03c0
03fc
07ff
07cf
07cf
078f
07fc
0200
ENDCHAR
STARTCHAR G
ENCODING  32036
SWIDTH 340 0
DWIDTH 18 0
BBX 15 17 0 -1
BITMAP
0ffc
3f9e
739e
f39e
f39e
f79e
7e3e
003e
003e
003c
003c
007c
007c
007c
007c
007c
0030
ENDCHAR
STARTCHAR Go
ENCODING  32037
SWIDTH 300 0
DWIDTH 16 0
BBX 13 21 0 -1
BITMAP
0780
0f80
0780
0780
07f0
7ff8
f8f8
7878
f0f8
e0f8
00f8
00f0
00f0
01f0
01f0
01f0
01e0
01e0
03e0
01f0
0180
ENDCHAR
STARTCHAR GWa
ENCODING  32038
SWIDTH 320 0
DWIDTH 17 0
BBX 14 18 0 0
BITMAP
3fe0
3cf0
3cf0
38f0
70f0
00f0
01e0
1ffc
7c3c
783c
787c
f07c
00f8
00f8
00f0
01f0
01f0
01f0
ENDCHAR
STARTCHAR Te
ENCODING  32039
SWIDTH 480 0
DWIDTH 25 0
BBX 22 15 0 0
BITMAP
007fe0
03fff0
0f7cf8
1e7c7c
3c7c7c
3c7c7c
78787c
78787c
f8787c
f8787c
f8787c
f8787c
f8f87c
f8f87c
f8787c
ENDCHAR
STARTCHAR Tu
ENCODING  32040
SWIDTH 620 0
DWIDTH 32 0
BBX 29 15 1 -1
BITMAP
01ffe000
077df000
1e7cf800
3c7c78f0
3c7879f0
78787df0
78787ff0
f8787cf8
f8787c40
f8f87c00
f8f87800
f8f87800
f8f87800
f8f87c00
60607000
ENDCHAR
STARTCHAR Ti
ENCODING  32041
SWIDTH 600 0
DWIDTH 32 0
BBX 29 16 1 -2
BITMAP
01ffe000
077df000
1e7cf800
3c7c7800
3c787c00
78787c00
78787c00
f8787c00
f8787c00
f8f87800
f8f87800
f8f878f0
f8f879f0
f8f87ff0
606071f0
000000f8
ENDCHAR
STARTCHAR Ta
ENCODING  32042
SWIDTH 420 0
DWIDTH 23 0
BBX 20 18 1 -1
BITMAP
01ff80
0fffe0
1cf1e0
38f1f0
78f1f0
f8f1f0
f1f1f0
f1f1f0
f1f1e0
f1f1e0
f1f1e0
0001e0
0003e0
0003e0
0003e0
0003e0
0003e0
0003c0
ENDCHAR
STARTCHAR TE
ENCODING  32043
SWIDTH 580 0
DWIDTH 30 0
BBX 27 15 1 -1
BITMAP
01ffe000
077df000
1e7cf800
3c7c7800
3c787800
78787800
78787800
f8787800
f8787fc0
f8f87fe0
f8f879e0
f8f879e0
f8f879e0
f8f87fc0
60607f00
ENDCHAR
STARTCHAR T
ENCODING  32044
SWIDTH 440 0
DWIDTH 22 0
BBX 19 17 1 0
BITMAP
0fff00
1df7c0
79f3c0
79f3e0
f9e3e0
f1e3e0
f9f3e0
f0f100
00f000
01f000
01f000
01f000
01e000
01e000
03e000
03e000
01c000
ENDCHAR
STARTCHAR To
ENCODING  32045
SWIDTH 440 0
DWIDTH 23 0
BBX 20 17 1 0
BITMAP
00ffc0
07ffe0
0ef9f0
1cf9f0
3cf1f0
7cf1f0
78f1f0
78f1f0
f8f1f0
f8f1f0
f8f1f0
f0f080
f00000
f00000
f80000
f80000
600000
ENDCHAR
STARTCHAR TWa
ENCODING  32046
SWIDTH 540 0
DWIDTH 28 0
BBX 25 19 1 -2
BITMAP
01ff8000
0fffe000
1cf1e000
3cf1f000
78f1f000
f8f1f000
f9f1f000
f1f1f000
f1f1f000
f1f1f000
f1f1f000
0001f000
0001f000
0001f000
003fff80
003fff80
003c0780
00780780
00200000
ENDCHAR
STARTCHAR Ce
ENCODING  32047
SWIDTH 660 0
DWIDTH 34 0
BBX 31 15 1 -1
BITMAP
00fffe00
07ff7f00
0f1f0f80
1e1f07c0
3c1e07c0
7c1e07c0
f81e07c0
f81e07c0
f91e07c0
ff9ff7fc
f9fe77ce
f9fe77ce
f9fe77ce
ffbff7fc
601fc7f8
ENDCHAR
STARTCHAR Cu
ENCODING  32048
SWIDTH 700 0
DWIDTH 36 0
BBX 33 15 1 -1
BITMAP
00fffe0000
07ff7f0000
0f1f0f8f00
1e1f079f00
3c1e07ff00
7c1e07ff00
f81e07cf80
f81e07c000
f91e07c000
ff9ff7fc00
f9fe77ce00
f9fe77ce00
f9fe77ce00
ffbff7fc00
601fc7f800
ENDCHAR
STARTCHAR Ci
ENCODING  32049
SWIDTH 680 0
DWIDTH 36 0
BBX 33 18 1 -4
BITMAP
00fffe0000
07ff7f0000
0f1f0f8000
1e1f07c000
3c1f07c000
7c1e07c000
f81e07c000
f81e07c000
f91e07c000
ff9ff7c000
f9fe77c000
f9fe77c000
f9fe77c100
ffbff7ff00
601fc7ff00
0000000f00
0000000780
0000000100
ENDCHAR
STARTCHAR Ca
ENCODING  32050
SWIDTH 620 0
DWIDTH 33 0
BBX 30 18 0 -1
BITMAP
00fffc00
07fe1f00
1f1e0f80
3c1e07c0
783e07c0
ffbfe780
ffffff80
f1fe7f80
f1fe7f80
fbbe7f80
ff3fef80
00000f00
00000ff8
00001f3c
00001f3c
00001f3c
00001ff8
00000f40
ENDCHAR
STARTCHAR CE
ENCODING  32051
SWIDTH 660 0
DWIDTH 34 0
BBX 31 15 1 -1
BITMAP
00fffe00
07ff7f00
0f1f0f80
1e1f07c0
3c1e07c0
7c1e07c0
f81e07c0
f81e07c0
f91e07c0
ff9ff7fc
f9fe77ce
f9fe77ce
f9fe77ce
ffbff7fc
601fc7f8
ENDCHAR
STARTCHAR C
ENCODING  32052
SWIDTH 620 0
DWIDTH 33 0
BBX 30 18 0 -1
BITMAP
01fff800
0ffffe00
1f1f0f00
3c1f0f80
781f0ffc
ff9f0ffc
f9de0f9c
f9df8f9c
f98f8fb8
ff0f07e0
e00f0000
000f2000
001ff800
001f3800
001f3800
001f3800
001ff000
000e0000
ENDCHAR
STARTCHAR Co
ENCODING  32053
SWIDTH 660 0
DWIDTH 34 0
BBX 31 17 1 -1
BITMAP
00fffe00
03fe3f00
0f1e0f80
1e1e0780
3c3e0780
3c3e07f8
783ff7fe
783e778e
f83e778e
f83e778e
f83fe7fc
ff9f8000
f9c00000
f9c00000
f9c00000
ff800000
ff000000
ENDCHAR
STARTCHAR CWa
ENCODING  32054
SWIDTH 640 0
DWIDTH 34 0
BBX 31 21 0 -4
BITMAP
00fffc00
07ffff00
0f1e1f80
1e1e0f80
3c1e07c0
781e07c0
781e07c0
f81e07c0
f81e07c0
ff9fe7c0
fbdff7c0
fbfe77c0
fbfe7780
ffbe7780
ff3fe780
000007fc
0000fffe
0000f83e
0000f01e
0001e00e
00008000
ENDCHAR
STARTCHAR Pe
ENCODING  32055
SWIDTH 320 0
DWIDTH 17 0
BBX 14 21 1 -1
BITMAP
0f00
1f00
0f00
0f80
1de0
79f0
71f0
f1f0
f1e0
fbe0
7fc0
0f00
1ff0
3ff0
78f8
78f8
f8f8
f8f8
f8f8
f87c
f07c
ENDCHAR
STARTCHAR Pu
ENCODING  32056
SWIDTH 440 0
DWIDTH 23 0
BBX 20 21 1 -1
BITMAP
0f0000
1f0000
0f0000
0f0000
1fc000
79e000
71f000
f1e000
f1e000
f3c000
7f8000
0f0000
1ff000
3ff860
78ffe0
78ffe0
f8f9e0
f8f8f0
f8f800
f87c00
f07800
ENDCHAR
STARTCHAR Pi
ENCODING  32057
SWIDTH 460 0
DWIDTH 24 0
BBX 21 22 1 -2
BITMAP
0f0000
1f0000
0f0000
0f8000
1de000
79f000
71f000
f1f000
f1e000
7bc000
7f8000
0f0000
1ff000
3ff000
78f800
78f800
f8f800
f8f870
f8f9f0
f87ff0
f079f0
0000f8
ENDCHAR
STARTCHAR Pa
ENCODING  32058
SWIDTH 320 0
DWIDTH 17 0
BBX 14 21 1 -1
BITMAP
0f00
1f00
0f00
0f80
1fe0
79e0
79f0
f1f0
f1e0
71e0
7fc0
0f80
1fe0
3ff0
78f8
f8f8
f8f8
f8f8
f8f8
00fc
007c
ENDCHAR
STARTCHAR PE
ENCODING  32059
SWIDTH 400 0
DWIDTH 21 0
BBX 18 21 1 -1
BITMAP
0f0000
1f0000
0f0000
0f0000
3dc000
79e000
f1f000
f1e000
f1e000
fbc000
7f8000
0f0000
1ff000
3ff000
78f800
78ff80
f8f9c0
f8f9c0
f8f9c0
f87fc0
f07f00
ENDCHAR
STARTCHAR P
ENCODING  32060
SWIDTH 400 0
DWIDTH 22 0
BBX 19 21 0 -1
BITMAP
0f0000
1f0000
0f0000
0f8000
3de000
79f000
f1ffc0
f1ffc0
f1f3c0
fbe1e0
7fc080
078000
1ff000
1ff800
3cf800
78f800
787c00
f87c00
f87c00
f87c00
783c00
ENDCHAR
STARTCHAR Po
ENCODING  32061
SWIDTH 320 0
DWIDTH 17 0
BBX 14 21 1 -1
BITMAP
0f00
1f00
0f00
0f80
1de0
79e0
71f0
f1f0
f1e0
7bc0
7f80
0f00
1ff0
3ff8
78f8
78f8
f8fc
f87c
f878
f800
f000
ENDCHAR
STARTCHAR PWa
ENCODING  32062
SWIDTH 320 0
DWIDTH 17 0
BBX 14 21 1 -1
BITMAP
0f00
1f00
0f00
0f80
1fe0
79e0
79f0
f1f0
f1e0
71e0
7fc0
0f80
1fe0
3ff0
78f8
f8f8
f8f8
f8f8
f8f8
00fc
007c
ENDCHAR
STARTCHAR Se
ENCODING  32063
SWIDTH 320 0
DWIDTH 17 0
BBX 14 19 1 -1
BITMAP
1fe0
39f0
79f0
f1f0
f1e0
f1e0
7fc0
3f80
0f00
1fe0
3ff0
7cf8
78f8
f8f8
f8f8
f8f8
f8fc
f87c
4000
ENDCHAR
STARTCHAR Su
ENCODING  32064
SWIDTH 440 0
DWIDTH 23 0
BBX 20 19 1 -1
BITMAP
1fe000
39e000
71f000
f1e000
f1e000
f1e000
ffc000
7f8000
0f0000
1ff000
3ff000
7cf9e0
78ffe0
f8f9e0
f8f9f0
f8f8f0
f8f800
f87c00
400000
ENDCHAR
STARTCHAR Si
ENCODING  32065
SWIDTH 460 0
DWIDTH 24 0
BBX 21 20 1 -2
BITMAP
1fe000
39f000
79f000
f1f000
f1e000
f1e000
7fc000
7f8000
0f0000
1fe000
3ff000
7cf000
78f800
f8f800
f8f800
f8f8f0
f8f9f0
f87ff0
4001f0
0000f8
ENDCHAR
STARTCHAR Sa
ENCODING  32066
SWIDTH 300 0
DWIDTH 17 0
BBX 14 18 0 0
BITMAP
1fe0
79e0
71f0
f1e0
f1e0
f1c0
ffc0
7f80
0f00
1fe0
3ff0
7cf0
f8f8
f8f8
f8f8
f8f8
00fc
007c
ENDCHAR
STARTCHAR SE
ENCODING  32067
SWIDTH 400 0
DWIDTH 21 0
BBX 18 19 1 -1
BITMAP
1fe000
79e000
71f000
f1e000
f1e000
f1c000
ffc000
7f8000
0f0000
1fe000
3ff000
7cf800
78ff00
f8ffc0
f8f9c0
f8f9c0
f8fbc0
f87f80
400000
ENDCHAR
STARTCHAR S
ENCODING  32068
SWIDTH 400 0
DWIDTH 21 0
BBX 18 19 1 -1
BITMAP
1fe000
79e000
71ffc0
f1ff80
f1e7c0
f1e3c0
ffc180
7f8000
0f8000
1fe000
3ff000
7cf800
78f800
f8f800
f8f800
f8f800
f8f800
f87c00
400000
ENDCHAR
STARTCHAR So
ENCODING  32069
SWIDTH 320 0
DWIDTH 17 0
BBX 14 19 1 -1
BITMAP
1fe0
39f0
79f0
f1f0
f1e0
f1e0
7fc0
7f80
0f00
1ff0
3ff8
7cf8
78f8
f8f8
f8fc
f87c
f800
f800
4000
ENDCHAR
STARTCHAR SWa
ENCODING  32070
SWIDTH 420 0
DWIDTH 22 0
BBX 19 22 1 -4
BITMAP
1fc000
79e000
f1e000
f1e000
f1e000
f3c000
ffc000
7f8000
0f0000
1fe000
3ff000
7cf000
f8f000
f0f800
f8f800
f8f800
00f800
0fffe0
0fffe0
0f01e0
1e01e0
1c0040
ENDCHAR
STARTCHAR `Se/S2e
ENCODING  32071
SWIDTH 260 0
DWIDTH 15 0
BBX 12 17 0 0
BITMAP
07e0
1ff0
39f0
79f0
79f0
f9f0
f9f0
fff0
f9f0
f9e0
f1e0
f1e0
f1e0
f1e0
f3c0
ff80
7800
ENDCHAR
STARTCHAR `Su/S2u
ENCODING  32072
SWIDTH 400 0
DWIDTH 21 0
BBX 18 17 0 0
BITMAP
07e000
1fe000
39f000
79f000
79f000
f9f000
f9f080
ffffc0
f9ffc0
f9f7c0
f1e3c0
f1e000
f1e000
f1e000
f3c000
ff8000
780000
ENDCHAR
STARTCHAR `Si/S2i
ENCODING  32073
SWIDTH 340 0
DWIDTH 19 0
BBX 16 21 1 -2
BITMAP
3fc0
73e0
f3e0
ffe0
ffe0
f3e0
f3e0
ffe0
7fc0
03c0
07c0
07c0
0780
0f80
0f80
0f8e
0f9e
0ffe
0ffe
001f
0004
ENDCHAR
STARTCHAR `Sa/S2a
ENCODING  32074
SWIDTH 260 0
DWIDTH 14 0
BBX 11 19 1 0
BITMAP
1fc0
7fe0
f3e0
f1e0
ffe0
f3e0
f3e0
ffe0
7fe0
03c0
07c0
07c0
07c0
0f80
0f80
0f80
0f80
0f80
0f80
ENDCHAR
STARTCHAR `SE/S2E
ENCODING  32075
SWIDTH 320 0
DWIDTH 18 0
BBX 15 19 1 0
BITMAP
1fc0
7be0
f3e0
f3e0
ffe0
f3e0
f3e0
ffe0
7fe0
03c0
07c0
07c0
07d0
0ffc
0f9e
0f9e
0f9e
0fbc
0ff8
ENDCHAR
STARTCHAR `S/S2
ENCODING  32076
SWIDTH 300 0
DWIDTH 16 0
BBX 13 19 1 0
BITMAP
0780
07c0
07c0
0780
07e0
0ff0
1cf8
38f8
78f8
fbf8
fff8
f8f8
f0f8
f0f8
f0f0
f1f0
f1e0
ffc0
7c00
ENDCHAR
STARTCHAR `So/S2o
ENCODING  32077
SWIDTH 320 0
DWIDTH 17 0
BBX 14 20 1 -1
BITMAP
01f0
073c
0e3c
1ffc
1ffc
1e3c
1e38
1e78
1ef0
0fc0
0e00
1c00
3c00
7800
7800
f800
f800
f800
f800
4000
ENDCHAR
STARTCHAR fe
ENCODING  32079
SWIDTH 400 0
DWIDTH 21 0
BBX 18 17 1 0
BITMAP
00f000
01f000
00f000
01f000
01e000
03e000
07c000
0f8000
1f0000
3f8000
7fc000
f9e000
f9e780
f9ef80
f9ff80
ffcfc0
7c07c0
ENDCHAR
STARTCHAR fu
ENCODING  32080
SWIDTH 400 0
DWIDTH 21 0
BBX 18 19 1 0
BITMAP
07c000
07c000
078000
0f8000
1f0000
3e0000
7f0000
ffc100
f3c780
f3cf80
f3ff80
7fffc0
078780
0f8000
0f8000
0f0000
1f0000
1f0000
1f0000
ENDCHAR
STARTCHAR fi
ENCODING  32081
SWIDTH 400 0
DWIDTH 21 0
BBX 18 18 1 0
BITMAP
00f000
01f000
00f000
01f000
01e000
03e000
07c000
0f8000
1f0000
3e83c0
3fc7c0
79e7c0
f1e7c0
f1e780
f3c700
fffe00
fc0000
700000
ENDCHAR
STARTCHAR fa
ENCODING  32082
SWIDTH 400 0
DWIDTH 21 0
BBX 18 19 1 -1
BITMAP
07c000
07c000
07c000
0f8000
1f0000
3e0000
7f8000
ffc000
f3e000
f3e000
ffff80
7fff80
03c780
03c3c0
03c180
03c000
03c000
03e000
030000
ENDCHAR
STARTCHAR fE
ENCODING  32083
SWIDTH 460 0
DWIDTH 25 0
BBX 22 20 1 -2
BITMAP
00f800
00f800
00f000
00f000
01e000
03e000
07c000
0f8000
1f0000
3f8000
7fc000
7be000
f1e000
f1e7f0
f3ff78
ffff3c
ff0f3c
700f7c
000f78
0007f0
ENDCHAR
STARTCHAR f
ENCODING  32084
SWIDTH 380 0
DWIDTH 20 0
BBX 17 18 1 0
BITMAP
07ff00
1fff00
3c0f00
780780
f80200
f80000
f3c000
f3e000
f3e000
f3e000
ffff80
7fff80
03cf80
03c780
03c300
03c000
03e000
03c000
ENDCHAR
STARTCHAR fo
ENCODING  32085
SWIDTH 400 0
DWIDTH 21 0
BBX 18 18 1 0
BITMAP
003f80
07f3c0
1ff3c0
38f3c0
78f3c0
f87380
f87f00
f80000
f80000
f80000
ff8000
ffc000
f3c000
f3c780
f3cf80
fbff80
ffcf80
7c0780
ENDCHAR
STARTCHAR fWa
ENCODING  32086
SWIDTH 400 0
DWIDTH 21 0
BBX 18 22 1 -4
BITMAP
07c000
07c000
07c000
0f8000
1f0000
3e0000
7f8000
ffc000
f3e000
f3e000
ffff80
7fff80
03c780
03c3c0
03c180
03c000
03c000
7fff00
7f8f00
780f00
f00700
400000
ENDCHAR
STARTCHAR pe
ENCODING  32087
SWIDTH 400 0
DWIDTH 21 0
BBX 18 20 1 -1
BITMAP
000fc0
0fff80
ffe780
7be3c0
f3e1c0
e3e000
43e000
03e000
03e000
03e000
03e000
03e000
03c000
03c000
03c000
03c000
03c000
03e000
03e000
010000
ENDCHAR
STARTCHAR pu
ENCODING  32088
SWIDTH 400 0
DWIDTH 21 0
BBX 18 20 1 -1
BITMAP
000fc0
0fff80
ffe780
7be3c0
f3e1c0
e3e000
43e000
03e000
03e300
03ef00
03cf80
03ff80
03ef80
03c700
03c000
03c000
03e000
03e000
03e000
010000
ENDCHAR
STARTCHAR pi
ENCODING  32089
SWIDTH 400 0
DWIDTH 21 0
BBX 18 21 1 -2
BITMAP
000f80
0fff80
ffe780
7be7c0
f3e1c0
e3e000
43e000
03e000
03c000
03c000
03c000
03c000
03c000
03c000
03c000
03c000
03c780
03ef80
03ff80
000780
0007c0
ENDCHAR
STARTCHAR pa
ENCODING  32090
SWIDTH 460 0
DWIDTH 24 0
BBX 21 20 1 -1
BITMAP
0003f0
01fff0
1ffcf0
1f7c78
1e7c38
1c7c00
187c00
007800
007800
007800
007800
007000
00f000
00e000
01c000
1f0000
f80000
f80000
f00000
e00000
ENDCHAR
STARTCHAR pE
ENCODING  32091
SWIDTH 400 0
DWIDTH 21 0
BBX 18 20 1 -1
BITMAP
000fc0
0fff80
ffe780
7be3c0
f3e1c0
e3e000
43e000
03e000
03e000
03e000
03e000
03e000
03c000
03fe00
03ff00
03c700
03c700
03cf00
03fe00
000000
ENDCHAR
STARTCHAR p
ENCODING  32092
SWIDTH 400 0
DWIDTH 21 0
BBX 18 19 1 0
BITMAP
000f80
0fff80
ffe780
7be780
f3e3c0
e3c000
43f000
01f000
00f000
00f000
00f000
01f000
01f000
01f000
01e000
01e000
01e000
01f000
01e000
ENDCHAR
STARTCHAR po
ENCODING  32093
SWIDTH 500 0
DWIDTH 26 0
BBX 23 19 2 -2
BITMAP
00007c
003ffc
07ff3c
079f3e
079e0e
071e00
063e00
003e00
007c00
007800
00f000
03e000
0f8000
3f0000
7c0000
780000
f00000
f00000
f00000
ENDCHAR
STARTCHAR pWa
ENCODING  32094
SWIDTH 460 0
DWIDTH 24 0
BBX 21 20 1 -1
BITMAP
0003f0
01fff0
1ffcf0
1f7c78
1e7c38
1c7c00
187c00
007800
007800
007800
007800
007000
00f000
00e000
01c000
1f0000
f80000
f80000
f00000
e00000
ENDCHAR
STARTCHAR mYa
ENCODING  32095
SWIDTH 480 0
DWIDTH 25 0
BBX 22 18 1 0
BITMAP
0ffff8
39ef3c
71ef3c
f1ef3c
f3cf3c
f3df7c
f3dff8
7f88f8
3000f8
0000f0
0001f0
0001f0
0001e0
0003e0
0003e0
0003c0
0007c0
0003c0
ENDCHAR
STARTCHAR rYa
ENCODING  32096
SWIDTH 320 0
DWIDTH 17 0
BBX 14 19 1 0
BITMAP
00f0
01f8
00f8
00f0
01f0
01e0
03c0
07c0
0f80
1e00
3c00
7808
f8fc
f07c
f078
f070
ffe0
7f00
3000
ENDCHAR
STARTCHAR fYa
ENCODING  32097
SWIDTH 400 0
DWIDTH 21 0
BBX 18 18 1 0
BITMAP
00f000
01f000
00f000
01f000
01e000
03e000
07c000
0f8000
1f0000
3e83c0
3fc7c0
79e7c0
f1e7c0
f1e780
f3c700
fffe00
fc0000
700000
ENDCHAR
STARTCHAR Ethiopic-Space
ENCODING  32103
SWIDTH 180 0
DWIDTH 18 0
BBX 0 0 0 1
BITMAP
ENDCHAR
STARTCHAR Ethiopic-Wordspace
ENCODING  32104
SWIDTH 180 0
DWIDTH 8 0
BBX 5 13 3 2
BITMAP
78
78
78
f8
f8
00
00
78
f8
f8
f0
f0
c0
ENDCHAR
STARTCHAR Ethiopic-Full-Stop
ENCODING  32105
SWIDTH 380 0
DWIDTH 15 0
BBX 12 13 5 2
BITMAP
01f0
f9f0
79e0
fbe0
fbe0
f000
0020
7be0
fbe0
fbe0
f3e0
f3c0
c000
ENDCHAR
STARTCHAR Ethiopic-Comma
ENCODING  32106
SWIDTH 300 0
DWIDTH 13 0
BBX 10 15 2 0
BITMAP
ffc0
ffc0
8000
0000
1f00
3e00
3e00
3e00
0000
0000
1e00
3e00
3e00
3e00
3000
ENDCHAR
STARTCHAR Ethiopic-Semicolon
ENCODING  32107
SWIDTH 280 0
DWIDTH 14 0
BBX 11 18 2 1
BITMAP
7fe0
7fe0
7e00
0000
1f80
0f00
1f00
1f00
0000
0000
1f00
1f00
1f00
1f00
0000
0f80
ffc0
ff80
ENDCHAR
STARTCHAR Ethiopic-Colon
ENCODING  32108
SWIDTH 380 0
DWIDTH 19 0
BBX 16 14 2 2
BITMAP
03e0
03c0
03c0
07c0
0000
00ff
7fff
fff0
c000
0180
07c0
07c0
07c0
0780
ENDCHAR
STARTCHAR Ethiopic-Preface-Colon
ENCODING  32109
SWIDTH 380 0
DWIDTH 17 0
BBX 14 13 3 1
BITMAP
7800
7800
f800
f800
f80c
03fc
03fc
f800
f800
f800
f800
f800
8000
ENDCHAR
STARTCHAR Ethiopic-Question-Mark
ENCODING  32110
SWIDTH 308 0
DWIDTH 7 0
BBX 4 17 2 2
BITMAP
F0
F0
F0
F0
00
00
70
F0
F0
F0
E0
00
00
F0
F0
F0
F0
ENDCHAR
STARTCHAR Ethiopic-End-Paragraph
ENCODING  32111
SWIDTH 436 0
DWIDTH 19 0
BBX 16 20 2 2
BITMAP
0180
03C0
03C0
0180
E007
F00F
F00F
E007
0180
03C0
03C0
0180
E007
F00F
F00F
E007
0180
03C0
03C0
0180
ENDCHAR
STARTCHAR Ethiopic-1
ENCODING  32112
SWIDTH 320 0
DWIDTH 17 0
BBX 14 25 1 -1
BITMAP
1ff8
3c3c
3c3c
381c
0780
0fc0
0780
0f80
0f00
0fc0
1ff0
3e70
3c78
7c78
7c78
7878
7878
78f0
3fe0
0400
0060
fff0
f0e0
f0f0
e070
ENDCHAR
STARTCHAR Ethiopic-2
ENCODING  32113
SWIDTH 280 0
DWIDTH 16 0
BBX 13 25 0 -1
BITMAP
3ff0
3cf0
3870
3838
0000
1fe0
3cf0
7cf0
78f0
78f0
7fe0
7f80
7800
7800
7fc0
7de0
3ce0
1ce0
0fc0
0000
00c0
ffe0
71e0
f1e0
e0e0
ENDCHAR
STARTCHAR Ethiopic-3
ENCODING  32114
SWIDTH 300 0
DWIDTH 16 0
BBX 13 25 1 -1
BITMAP
3ff8
1c78
1c78
3838
0000
0ff0
3ff0
3cf0
3c78
7c20
7c00
7c00
7c00
7c00
7c00
7800
7800
7c00
7800
0000
7fc0
fdc0
f1c0
e0e0
4000
ENDCHAR
STARTCHAR Ethiopic-4
ENCODING  32115
SWIDTH 320 0
DWIDTH 17 0
BBX 14 25 0 -1
BITMAP
3ffc
1c3c
3c3c
381c
0000
07e0
0ff0
1e78
3e78
3c78
3c78
7c78
7cf8
7cf8
7cf0
3cf0
3ce0
1fc0
0780
0000
0fe0
fff0
f0e0
f0f0
c060
ENDCHAR
STARTCHAR Ethiopic-5
ENCODING  32116
SWIDTH 320 0
DWIDTH 17 0
BBX 14 26 1 -1
BITMAP
3ff0
3ff0
3c70
3878
37c0
07c0
0780
0f80
0f80
1ff8
1e78
3c7c
783c
f800
f800
f030
f0f0
f9f0
fff0
7ef8
0070
0fc0
ffe0
71e0
f0e0
e060
ENDCHAR
STARTCHAR Ethiopic-6
ENCODING  32117
SWIDTH 320 0
DWIDTH 17 0
BBX 14 26 1 -1
BITMAP
3ff8
3f78
3878
7038
2000
7000
7fe0
7fe0
79e0
63e0
03c0
03c0
07c0
07f8
07fc
0fbc
0fbc
0fbc
0ff8
0000
0000
7fe0
fef0
70f0
e070
c000
ENDCHAR
STARTCHAR Ethiopic-7
ENCODING  32118
SWIDTH 340 0
DWIDTH 18 0
BBX 15 26 1 -2
BITMAP
3ff8
3c38
3c38
3818
0000
0000
7fc0
7be0
7be0
f3c0
e3c0
07c0
0780
0780
0f80
0f1c
0f3c
1ffc
0e3e
001e
0000
1ffc
1fbc
1c3c
381c
1000
ENDCHAR
STARTCHAR Ethiopic-8
ENCODING  32119
SWIDTH 380 0
DWIDTH 21 0
BBX 18 26 0 -2
BITMAP
0fff00
070f00
0f0f00
0e0700
000000
000000
3fff80
3de780
79e780
79e3c0
21e000
03e000
03e000
03e000
03e000
03e000
ffff80
780f80
700780
f00380
000000
1ff800
3c3800
3c3c00
381c00
000000
ENDCHAR
STARTCHAR Ethiopic-9
ENCODING  32120
SWIDTH 320 0
DWIDTH 17 0
BBX 14 25 1 -1
BITMAP
3ff8
3c38
3c3c
381c
0000
0018
3cf8
3efc
3e7c
3e7c
3ffc
3ff8
3c78
3cf8
7cf8
7cf0
7ce0
7cc0
3f80
0000
0060
ffe0
f0e0
f0f0
e060
ENDCHAR
STARTCHAR Ethiopic-10
ENCODING  32121
SWIDTH 300 0
DWIDTH 15 0
BBX 12 26 1 -1
BITMAP
7ff0
7cf0
70f0
e070
4000
0000
0f80
0f80
0f80
0f80
0f00
1f00
1f00
1f00
1f00
1f00
1f00
1f00
1e00
0000
0000
7fe0
ffe0
f0e0
e0f0
c000
ENDCHAR
STARTCHAR Ethiopic-20
ENCODING  32122
SWIDTH 380 0
DWIDTH 20 0
BBX 17 27 1 -2
BITMAP
1ffc00
1ffc00
1c3c00
1c1c00
100000
000200
ffff00
fbcf00
f3cf00
e7c780
478000
0f8000
1ff000
1ff800
3c7800
787800
787800
f87800
f87c00
f87c00
787c00
000000
07f000
fff000
707000
f07800
e03000
ENDCHAR
STARTCHAR Ethiopic-30
ENCODING  32123
SWIDTH 380 0
DWIDTH 21 0
BBX 18 25 1 -1
BITMAP
0ffe00
0f1e00
0f0e00
0e0600
000000
000000
003f00
38ffc0
79f7c0
f1e7c0
f1e7c0
f1e7c0
f1e780
f1e780
f3e780
f3c780
7f8f80
1e0f80
000f80
000000
003000
3ff800
3c7800
383800
301800
ENDCHAR
STARTCHAR Ethiopic-40
ENCODING  32124
SWIDTH 400 0
DWIDTH 21 0
BBX 18 27 1 -2
BITMAP
0ffe00
1f8e00
1e0e00
1c0700
180000
00c780
fbe7c0
f9e7c0
f9e7c0
f1e7c0
f1ff80
f39f80
ff0f80
7c0f80
000f00
000f00
001f00
001f00
001f00
001f00
001e00
000000
7ff800
787800
703800
703800
400000
ENDCHAR
STARTCHAR Ethiopic-50
ENCODING  32125
SWIDTH 320 0
DWIDTH 17 0
BBX 14 26 0 -2
BITMAP
3ff8
3c78
3838
703c
0008
3cf8
3e78
3e78
3e78
3e78
3ff8
3ff8
08f0
00f0
01f0
01f0
01f0
01e0
01e0
01e0
0000
7fe0
7ff0
70f0
f070
c020
ENDCHAR
STARTCHAR Ethiopic-60
ENCODING  32126
SWIDTH 380 0
DWIDTH 20 0
BBX 17 26 1 -2
BITMAP
1ffc00
1e3c00
1c1c00
1c0c00
000000
7fff00
7fff00
7bef00
f3c780
e3c000
03e000
01e000
01e000
03e000
03e000
03c000
7ffe00
ffff00
f00f00
f00f00
e00600
3ff800
3f7800
387800
703800
200000
ENDCHAR
STARTCHAR Ethiopic-70
ENCODING  32289
SWIDTH 380 0
DWIDTH 20 0
BBX 17 26 1 -2
BITMAP
1ffe00
1e0e00
1e0e00
1c0700
000000
00ff00
1fef80
39ef80
79ef80
79ef80
f1ff00
f0f000
f00000
f00000
f03800
f07800
f8f800
fff800
7f7c00
003800
000000
7ff800
7ff800
707800
703800
400000
ENDCHAR
STARTCHAR Ethiopic-80
ENCODING  32290
SWIDTH 500 0
DWIDTH 26 0
BBX 23 25 1 -1
BITMAP
03ffc0
03c380
0383c0
0701c0
000000
7ffffc
7ffffc
7bef3c
f3cf1e
e3cf08
03cf00
03cf00
03cf00
07cf00
07df00
07df00
079f00
079f00
079e00
000000
000000
0fff00
0f0f00
0e0f00
0e0700
ENDCHAR
STARTCHAR Ethiopic-90
ENCODING  32291
SWIDTH 320 0
DWIDTH 17 0
BBX 14 26 1 -2
BITMAP
3ff8
3c78
3838
301c
0000
3fe0
7df0
79f0
79e0
f1e0
03f0
03f0
01f0
01e0
01e0
03e0
03c0
03c0
07c0
07c0
0000
7fe0
7ff0
70f0
f070
c020
ENDCHAR
STARTCHAR Ethiopic-100
ENCODING  32292
SWIDTH 320 0
DWIDTH 17 0
BBX 14 26 1 -2
BITMAP
3ff8
3c78
3838
703c
01c0
0ff0
3cf0
78f0
78f0
78f0
79e0
7fc0
7e00
7c00
3e00
3e00
3e00
3e00
3e00
3e00
1800
03e0
ffe0
f0e0
e0f0
c060
ENDCHAR
STARTCHAR Ethiopic-10000
ENCODING  32293
SWIDTH 480 0
DWIDTH 26 0
BBX 23 27 1 -2
BITMAP
0fffe0
0f00e0
0e00f0
1c0070
000000
0fc0fc
3de39e
79e71e
f1ef1e
f1ef1e
f3cf3c
f78f78
ff0ff0
f80f80
7fff80
780780
780780
780780
780780
7c0780
780780
000000
3fff80
3f83c0
3803c0
3801c0
200000
ENDCHAR
STARTCHAR Ethiopic-Gemination
ENCODING  32377
SWIDTH 615 0
DWIDTH 22 0
BBX 19 5 2 18
BITMAP
900120
F001E0
F001E0
F001E0
6000C0
ENDCHAR
STARTCHAR Ethiopic-Sarcasm-Mark
ENCODING  32378
SWIDTH 0 0
DWIDTH 6 0
BBX 3 21 2 -1
BITMAP
E0
E0
e0
00
00
00
40
40
C0
C0
C0
E0
E0
E0
E0
E0
E0
E0
E0
E0
E0
ENDCHAR
STARTCHAR Ethiopic-Point
ENCODING  32379
SWIDTH 0 0
DWIDTH 7 0
BBX 4 4 2 -1
BITMAP
60
f0
f0
60
ENDCHAR
STARTCHAR Ethiopic-Left-Quote
ENCODING  32380
SWIDTH 436 0
DWIDTH 17 0
BBX 14 17 2 1
BITMAP
0104
030C
071C
0F3C
1E78
3CF0
79E0
F3C0
E380
F3C0
79E0
3CF0
1E78
0F3C
071C
030C
0104
ENDCHAR
STARTCHAR Ethiopic-Right-Quote
ENCODING  32381
SWIDTH 436 0
DWIDTH 17 0
BBX 14 17 0 1
BITMAP
820000
c30000
e38000
f3c000
79e000
3cf000
1e7800
0f3c00
071c00
0f3c00
1e7800
3cf000
79e000
f3c000
e38000
c30000
820000
ENDCHAR
STARTCHAR Ethiopic-Sylized-Question-Mark
ENCODING  32382
SWIDTH 160 0
DWIDTH 9 0
BBX 6 17 2 -1
BITMAP
e0
f0
08
0c
04
0c
0c
3c
78
60
40
40
00
00
60
e0
60
ENDCHAR
ENDFONT
